<svg width="53" height="20" viewBox="0 0 53 20" fill="none" xmlns="http://www.w3.org/2000/svg">
<path d="M7.03613 5.11523V6.01758H2.53809V12.2109C4.73242 12.2178 6.1748 12.1426 7.85645 11.8145L7.99316 12.7031C6.20215 13.0449 4.71875 13.127 2.3877 13.127H1.45801V5.11523H7.03613ZM6.31152 9.27148V8.38281H9.85254V3.95312H10.9326V16.1348H9.85254V9.27148H6.31152ZM24.0713 13.6602V14.5488H12.9424V13.6602H17.9463V11.0352H14.2549V4.81445H15.335V7.01562H21.6514V4.81445H22.7041V11.0352H18.999V13.6602H24.0713ZM15.335 10.1602H21.6514V7.89062H15.335V10.1602ZM35.0908 3.95312V16.1074H34.0107V3.95312H35.0908ZM25.1924 12.9492C28.4805 11.3906 30.1621 9.05957 30.4014 6.1543H25.7529V5.2793H31.4951C31.4814 8.77246 29.8545 11.8691 25.7803 13.8242L25.1924 12.9492Z" fill="#AFB8C1"/>
<rect x="37" y="3" width="16" height="16" fill="white"/>
<path d="M47.854 10.854L42.854 15.854C42.8076 15.9005 42.7524 15.9373 42.6917 15.9625C42.631 15.9876 42.566 16.0006 42.5003 16.0006C42.4346 16.0006 42.3695 15.9876 42.3088 15.9625C42.2481 15.9373 42.193 15.9005 42.1465 15.854C42.1001 15.8076 42.0632 15.7524 42.0381 15.6917C42.0129 15.631 42 15.566 42 15.5003C42 15.4346 42.0129 15.3695 42.0381 15.3088C42.0632 15.2481 42.1001 15.193 42.1465 15.1465L46.7934 10.5003L42.1465 5.85403C42.0527 5.76021 42 5.63296 42 5.50028C42 5.3676 42.0527 5.24035 42.1465 5.14653C42.2403 5.05271 42.3676 5 42.5003 5C42.633 5 42.7602 5.05271 42.854 5.14653L47.854 10.1465C47.9005 10.193 47.9374 10.2481 47.9626 10.3088C47.9877 10.3695 48.0007 10.4346 48.0007 10.5003C48.0007 10.566 47.9877 10.631 47.9626 10.6917C47.9374 10.7524 47.9005 10.8076 47.854 10.854Z" fill="#AFB8C1"/>
</svg>
