<svg width="24" height="24" viewBox="0 0 24 24" fill="none" xmlns="http://www.w3.org/2000/svg">
<circle cx="13.6" cy="12.8" r="8.8" fill="#CBEBEA"/>
<path d="M17.5103 4.88811C16.684 4.0483 15.6996 3.38039 14.6139 2.92293C13.5281 2.46546 12.3626 2.22749 11.1844 2.22273C10.0063 2.21797 8.83883 2.44653 7.74945 2.89521C6.66007 3.3439 5.6703 4.00383 4.83724 4.83695C4.00418 5.67006 3.34432 6.65987 2.89571 7.74929C2.4471 8.8387 2.21863 10.0062 2.22346 11.1843C2.2283 12.3625 2.46636 13.528 2.9239 14.6137C3.38144 15.6994 4.04941 16.6837 4.88928 17.51C5.71559 18.3498 6.69999 19.0177 7.78572 19.4752C8.87144 19.9326 10.037 20.1706 11.2151 20.1754C12.3933 20.1801 13.5607 19.9516 14.6501 19.5029C15.7395 19.0542 16.7293 18.3943 17.5623 17.5611C18.3954 16.728 19.0553 15.7382 19.5039 14.6488C19.9525 13.5594 20.1809 12.3919 20.1761 11.2138C20.1713 10.0356 19.9332 8.8701 19.4757 7.78441C19.0181 6.69872 18.3502 5.71436 17.5103 4.88811ZM9.27479 11.7245H13.1248L14.3585 14.3985C13.8161 14.1592 13.2087 14.1107 12.6351 14.2606C12.0616 14.4106 11.5557 14.7503 11.1998 15.2245C10.8441 14.7498 10.3382 14.4096 9.76439 14.2593C9.19063 14.109 8.58288 14.1575 8.04016 14.3967L9.27479 11.7245ZM9.75953 10.6745L11.1998 7.55249L12.6409 10.6745H9.75953ZM11.7248 16.7995C11.7248 16.3818 11.8907 15.9812 12.1861 15.6858C12.4815 15.3904 12.8821 15.2245 13.2998 15.2245C13.7175 15.2245 14.1181 15.3904 14.4135 15.6858C14.7088 15.9812 14.8748 16.3818 14.8748 16.7995V18.168C13.8992 18.6829 12.8257 18.9853 11.7248 19.0552V16.7995ZM7.52478 16.7995C7.52478 16.3818 7.69072 15.9812 7.98609 15.6858C8.28146 15.3904 8.68207 15.2245 9.09978 15.2245C9.5175 15.2245 9.91811 15.3904 10.2135 15.6858C10.5088 15.9812 10.6748 16.3818 10.6748 16.7995V19.0552C9.57391 18.9853 8.50035 18.6829 7.52478 18.168V16.7995ZM16.7683 16.768C16.5042 17.0309 16.2224 17.2753 15.9248 17.4995V15.3995C15.9248 15.3237 15.9084 15.2487 15.8767 15.1799L11.6767 6.07986C11.6347 5.98869 11.5675 5.91147 11.4829 5.85734C11.3984 5.80321 11.3002 5.77444 11.1998 5.77444C11.0994 5.77444 11.0012 5.80321 10.9166 5.85734C10.8321 5.91147 10.7649 5.98869 10.7229 6.07986L6.52291 15.1799C6.4912 15.2487 6.47478 15.3237 6.47478 15.3995V17.4995C6.17713 17.275 5.8953 17.0303 5.63128 16.7671C4.52996 15.6658 3.77994 14.2626 3.47609 12.735C3.17224 11.2074 3.3282 9.62399 3.92424 8.18503C4.52029 6.74606 5.52964 5.51616 6.82468 4.65085C8.11971 3.78554 9.64226 3.32368 11.1998 3.32368C12.7573 3.32368 14.2799 3.78554 15.5749 4.65085C16.8699 5.51616 17.8793 6.74606 18.4753 8.18503C19.0714 9.62399 19.2273 11.2074 18.9235 12.735C18.6196 14.2626 17.8696 15.6658 16.7683 16.7671V16.768Z" fill="#36393C"/>
</svg>
