<svg width="87" height="28" viewBox="0 0 87 28" fill="none" xmlns="http://www.w3.org/2000/svg">
<rect x="0.5" y="0.5" width="86" height="27" rx="13.5" stroke="#E6F5F5"/>
<path d="M31.0215 10.4648C31.0273 11.8535 32.0469 13.1191 33.5879 13.6523L33.1191 14.3672C31.9297 13.9453 31.0215 13.0957 30.5762 12.0176C30.1309 13.2012 29.1758 14.1211 27.9512 14.5664L27.459 13.8516C29.0176 13.3008 30.1074 11.959 30.1191 10.4648V10.0195H27.7402V9.26953H33.3652V10.0195H31.0215V10.4648ZM28.8184 16.1133V15.3633H35.6387V18.9492H34.7246V16.1133H28.8184ZM34.7246 14.8125V8.53125H35.6387V11.2852H37.209V12.0703H35.6387V14.8125H34.7246ZM45.9277 8.53125V12.7734H47.6152V13.5469H45.9277V18.9492H45.0137V8.53125H45.9277ZM37.9355 16.2422C40.625 14.9062 42.0898 12.8965 42.3008 10.4297H38.416V9.65625H43.2324C43.2266 12.6035 41.8438 15.293 38.4512 16.9688L37.9355 16.2422ZM56.8379 8.54297V16.1602H55.9238V8.54297H56.8379ZM48.4824 11.8242C48.4766 10.3242 49.6543 9.27539 51.2129 9.26953C52.7715 9.27539 53.9375 10.3242 53.9434 11.8242C53.9375 13.3418 52.7715 14.3965 51.2129 14.3906C49.6543 14.3965 48.4766 13.3418 48.4824 11.8242ZM49.3848 11.8242C49.373 12.8613 50.1582 13.582 51.2129 13.582C52.25 13.582 53.041 12.8613 53.041 11.8242C53.041 10.8047 52.25 10.0781 51.2129 10.0781C50.1582 10.0781 49.373 10.8047 49.3848 11.8242ZM50.1113 18.7266V15.3867H51.0254V17.9531H57.166V18.7266H50.1113ZM68.0996 13.4883V14.25H58.6074V13.4883H68.0996ZM59.1465 12.1289C60.9629 11.918 62.7148 11.0215 62.7559 9.83203H59.4746V9.07031H67.2559V9.83203H63.9512C63.9922 11.0098 65.7266 11.918 67.5723 12.1289L67.2324 12.8672C65.5273 12.6504 63.9277 11.8828 63.3535 10.7285C62.7793 11.8828 61.1914 12.6504 59.4746 12.8672L59.1465 12.1289ZM59.7559 17.0508C59.75 15.8555 61.1035 15.1641 63.3535 15.1641C65.5859 15.1641 66.9277 15.8555 66.9395 17.0508C66.9277 18.2578 65.5859 18.9258 63.3535 18.9258C61.1035 18.9258 59.75 18.2578 59.7559 17.0508ZM60.6934 17.0508C60.6816 17.7773 61.6836 18.1934 63.3535 18.1875C65.0059 18.1934 66.0078 17.7773 66.0137 17.0508C66.0078 16.3184 65.0059 15.9023 63.3535 15.8906C61.6836 15.9023 60.6816 16.3184 60.6934 17.0508ZM77.5801 8.54297V14.8711H76.666V8.54297H77.5801ZM69.0488 13.6875C69.9277 13.6875 70.9531 13.6758 72.0137 13.6406V12.3984H69.9746V9.11719H75.0254V9.87891H70.9004V11.6484H75.1074V12.3984H72.9395V13.6055C73.9121 13.5527 74.8906 13.4766 75.8105 13.3477L75.8691 14.0156C73.5898 14.3965 71.041 14.4199 69.166 14.4141L69.0488 13.6875ZM70.7246 18.8086V15.3867H77.5801V18.8086H70.7246ZM71.627 18.0586H76.6895V16.125H71.627V18.0586Z" fill="#418F8D"/>
<path d="M25.728 10.236L22.7639 7.27199C22.6777 7.18576 22.5753 7.11736 22.4626 7.07069C22.35 7.02402 22.2292 7 22.1072 7C21.9853 7 21.8645 7.02402 21.7519 7.07069C21.6392 7.11736 21.5368 7.18576 21.4506 7.27199L13.2719 15.4509C13.1855 15.537 13.117 15.6394 13.0704 15.752C13.0237 15.8647 12.9998 15.9855 13 16.1075V19.0715C13 19.3177 13.0978 19.5539 13.272 19.728C13.4461 19.9022 13.6823 20 13.9286 20H16.8927C17.0147 20.0002 17.1355 19.9763 17.2482 19.9296C17.3609 19.883 17.4632 19.8145 17.5493 19.7281L25.728 11.5491C25.8142 11.4629 25.8826 11.3606 25.9293 11.2479C25.976 11.1352 26 11.0145 26 10.8926C26 10.7706 25.976 10.6499 25.9293 10.5372C25.8826 10.4245 25.8142 10.3222 25.728 10.236Z" fill="#E6F5F5"/>
<path d="M21.728 11.236L18.7639 8.27199C18.6777 8.18576 18.5753 8.11736 18.4626 8.07069C18.35 8.02402 18.2292 8 18.1072 8C17.9853 8 17.8645 8.02402 17.7519 8.07069C17.6392 8.11736 17.5368 8.18576 17.4506 8.27199L9.27194 16.4509C9.18554 16.537 9.11703 16.6394 9.07036 16.752C9.02369 16.8647 8.99978 16.9855 9 17.1075V20.0715C9 20.3177 9.09783 20.5539 9.27197 20.728C9.44611 20.9022 9.6823 21 9.92857 21H12.8927C13.0147 21.0002 13.1355 20.9763 13.2482 20.9296C13.3609 20.883 13.4632 20.8145 13.5493 20.7281L21.728 12.5491C21.8142 12.4629 21.8826 12.3606 21.9293 12.2479C21.976 12.1352 22 12.0145 22 11.8926C22 11.7706 21.976 11.6499 21.9293 11.5372C21.8826 11.4245 21.8142 11.3222 21.728 11.236ZM12.9862 20.165C12.9614 20.1899 12.9278 20.204 12.8927 20.2041H9.92857C9.89339 20.2041 9.85965 20.1902 9.83477 20.1653C9.80989 20.1404 9.79592 20.1067 9.79592 20.0715V17.1075C9.79606 17.0724 9.81014 17.0388 9.83505 17.014L15.7653 11.0834L18.9164 14.2351L12.9862 20.165ZM21.1649 11.9867L19.4795 13.672L16.3284 10.521L18.0137 8.83507C18.026 8.82274 18.0407 8.81295 18.0568 8.80628C18.0729 8.7996 18.0901 8.79617 18.1076 8.79617C18.125 8.79617 18.1423 8.7996 18.1584 8.80628C18.1745 8.81295 18.1891 8.82274 18.2014 8.83507L21.1649 11.799C21.1772 11.8114 21.187 11.826 21.1937 11.8421C21.2004 11.8582 21.2038 11.8755 21.2038 11.8929C21.2038 11.9103 21.2004 11.9276 21.1937 11.9437C21.187 11.9598 21.1772 11.9744 21.1649 11.9867Z" fill="#4EABA9"/>
</svg>
