<svg width="48" height="48" viewBox="0 0 48 48" fill="none" xmlns="http://www.w3.org/2000/svg">
<rect x="12" y="14" width="32" height="26" rx="1" fill="#CBEBEA"/>
<path d="M38.1875 10H28.1875C27.1909 10.0007 26.2105 10.2523 25.3367 10.7315C24.4629 11.2108 23.7238 11.9022 23.1875 12.7422C22.6512 11.9022 21.9121 11.2108 21.0383 10.7315C20.1645 10.2523 19.1841 10.0007 18.1875 10H8.1875C7.60734 10 7.05094 10.2305 6.6407 10.6407C6.23047 11.0509 6 11.6073 6 12.1875V32.1875C6 32.7677 6.23047 33.3241 6.6407 33.7343C7.05094 34.1445 7.60734 34.375 8.1875 34.375H18.1875C19.2649 34.375 20.2983 34.803 21.0601 35.5649C21.822 36.3267 22.25 37.3601 22.25 38.4375C22.25 38.6861 22.3488 38.9246 22.5246 39.1004C22.7004 39.2762 22.9389 39.375 23.1875 39.375C23.4361 39.375 23.6746 39.2762 23.8504 39.1004C24.0262 38.9246 24.125 38.6861 24.125 38.4375C24.125 37.3601 24.553 36.3267 25.3149 35.5649C26.0767 34.803 27.1101 34.375 28.1875 34.375H38.1875C38.7677 34.375 39.3241 34.1445 39.7343 33.7343C40.1445 33.3241 40.375 32.7677 40.375 32.1875V12.1875C40.375 11.6073 40.1445 11.0509 39.7343 10.6407C39.3241 10.2305 38.7677 10 38.1875 10ZM18.1875 32.5H8.1875C8.10462 32.5 8.02513 32.4671 7.96653 32.4085C7.90792 32.3499 7.875 32.2704 7.875 32.1875V12.1875C7.875 12.1046 7.90792 12.0251 7.96653 11.9665C8.02513 11.9079 8.10462 11.875 8.1875 11.875H18.1875C19.2649 11.875 20.2983 12.303 21.0601 13.0649C21.822 13.8267 22.25 14.8601 22.25 15.9375V34.1109C21.1511 33.0751 19.6976 32.4988 18.1875 32.5ZM38.5 32.1875C38.5 32.2704 38.4671 32.3499 38.4085 32.4085C38.3499 32.4671 38.2704 32.5 38.1875 32.5H28.1875C26.6772 32.4993 25.2237 33.0762 24.125 34.1125V15.9375C24.125 14.8601 24.553 13.8267 25.3149 13.0649C26.0767 12.303 27.1101 11.875 28.1875 11.875H38.1875C38.2704 11.875 38.3499 11.9079 38.4085 11.9665C38.4671 12.0251 38.5 12.1046 38.5 12.1875V22.1875V32.1875Z" fill="#36393C"/>
</svg>
