<svg width="24" height="24" viewBox="0 0 24 24" fill="none" xmlns="http://www.w3.org/2000/svg">
<circle cx="12" cy="12" r="10" fill="white"/>
<path d="M18 8.83333V15.5C18 15.721 17.9097 15.933 17.7489 16.0893C17.5882 16.2455 17.3702 16.3333 17.1429 16.3333H13.7143C13.3733 16.3333 13.0463 16.465 12.8051 16.6994C12.564 16.9339 12.4286 17.2518 12.4286 17.5833C12.4286 17.6938 12.3834 17.7998 12.303 17.878C12.2227 17.9561 12.1137 18 12 18C11.8863 18 11.7773 17.9561 11.697 17.878C11.6166 17.7998 11.5714 17.6938 11.5714 17.5833C11.5714 17.2518 11.436 16.9339 11.1949 16.6994C10.9537 16.465 10.6267 16.3333 10.2857 16.3333H6.85714C6.62981 16.3333 6.4118 16.2455 6.25105 16.0893C6.09031 15.933 6 15.721 6 15.5V8.83333C6 8.61232 6.09031 8.40036 6.25105 8.24408C6.4118 8.0878 6.62981 8 6.85714 8H9.85714C10.3118 8 10.7478 8.17559 11.0693 8.48816C11.3908 8.80072 11.5714 9.22464 11.5714 9.66667V14.25C11.5714 14.3605 11.6166 14.4665 11.697 14.5446C11.7773 14.6228 11.8863 14.6667 12 14.6667C12.1137 14.6667 12.2227 14.6228 12.303 14.5446C12.3834 14.4665 12.4286 14.3605 12.4286 14.25V9.66667C12.4286 9.22464 12.6092 8.80072 12.9307 8.48816C13.2522 8.17559 13.6882 8 14.1429 8H17.1429C17.3702 8 17.5882 8.0878 17.7489 8.24408C17.9097 8.40036 18 8.61232 18 8.83333Z" fill="#57BEBC"/>
</svg>
