<svg width="24" height="24" viewBox="0 0 24 24" fill="none" xmlns="http://www.w3.org/2000/svg">
<g id="btn_up">
<path id="Vector" d="M5.18648 14.8614L11.5498 8.1955C11.6089 8.13353 11.6791 8.08436 11.7563 8.05081C11.8336 8.01727 11.9164 8 12 8C12.0836 8 12.1664 8.01727 12.2437 8.05081C12.3209 8.08436 12.3911 8.13353 12.4502 8.1955L18.8135 14.8614C18.9329 14.9865 19 15.1561 19 15.333C19 15.5099 18.9329 15.6796 18.8135 15.8047C18.6941 15.9297 18.5322 16 18.3633 16C18.1945 16 18.0325 15.9297 17.9131 15.8047L12 9.60951L6.08689 15.8047C6.02777 15.8666 5.95758 15.9157 5.88033 15.9492C5.80309 15.9827 5.7203 16 5.63669 16C5.55307 16 5.47028 15.9827 5.39304 15.9492C5.31579 15.9157 5.2456 15.8666 5.18648 15.8047C5.12736 15.7427 5.08046 15.6692 5.04847 15.5883C5.01647 15.5074 5 15.4206 5 15.333C5 15.2455 5.01647 15.1587 5.04847 15.0778C5.08046 14.9969 5.12736 14.9234 5.18648 14.8614Z" fill="#181818"/>
</g>
</svg>
