<svg width="24" height="24" viewBox="0 0 24 24" fill="none" xmlns="http://www.w3.org/2000/svg">
<circle cx="14.2891" cy="14.2776" r="7.38892" fill="#DDE0E4"/>
<path d="M12.3449 4.34838C10.7634 4.34838 9.21732 4.81737 7.90229 5.69605C6.58727 6.57472 5.56233 7.82361 4.95709 9.28479C4.35185 10.746 4.19349 12.3538 4.50204 13.905C4.81059 15.4562 5.57218 16.881 6.69052 17.9994C7.80886 19.1177 9.23371 19.8793 10.7849 20.1879C12.3361 20.4964 13.9439 20.338 15.4051 19.7328C16.8663 19.1276 18.1152 18.1026 18.9938 16.7876C19.8725 15.4726 20.3415 13.9265 20.3415 12.3449C20.339 10.2249 19.4957 8.19237 17.9966 6.69326C16.4975 5.19415 14.465 4.35086 12.3449 4.34838ZM12.3449 19.3207C10.9653 19.3207 9.61659 18.9115 8.46944 18.145C7.32229 17.3785 6.42819 16.2891 5.90022 15.0144C5.37224 13.7398 5.2341 12.3372 5.50326 10.984C5.77242 9.63089 6.43679 8.38794 7.41236 7.41236C8.38794 6.43679 9.63089 5.77242 10.984 5.50326C12.3372 5.2341 13.7398 5.37224 15.0144 5.90022C16.2891 6.42819 17.3785 7.32229 18.145 8.46944C18.9115 9.61659 19.3207 10.9653 19.3207 12.3449C19.3184 14.1943 18.5828 15.9673 17.275 17.275C15.9673 18.5828 14.1943 19.3184 12.3449 19.3207ZM6.58062 3.85838L3.85838 6.58062C3.76162 6.67078 3.63365 6.71986 3.50141 6.71753C3.36918 6.71519 3.24302 6.66163 3.1495 6.56811C3.05598 6.47459 3.00241 6.34843 3.00008 6.21619C2.99775 6.08396 3.04683 5.95598 3.13699 5.85922L5.85922 3.13699C5.95598 3.04683 6.08396 2.99775 6.21619 3.00008C6.34843 3.00241 6.47459 3.05598 6.56811 3.1495C6.66163 3.24302 6.71519 3.36918 6.71753 3.50141C6.71986 3.63365 6.67078 3.76162 6.58062 3.85838ZM21.5529 6.58062C21.4572 6.6762 21.3275 6.72989 21.1922 6.72989C21.0569 6.72989 20.9272 6.6762 20.8315 6.58062L18.1093 3.85838C18.0191 3.76162 17.97 3.63365 17.9724 3.50141C17.9747 3.36918 18.0283 3.24302 18.1218 3.1495C18.2153 3.05598 18.3415 3.00241 18.4737 3.00008C18.6059 2.99775 18.7339 3.04683 18.8307 3.13699L21.5529 5.85922C21.6485 5.95493 21.7022 6.08466 21.7022 6.21992C21.7022 6.35518 21.6485 6.48491 21.5529 6.58062ZM17.1089 11.8345C17.2442 11.8345 17.3741 11.8883 17.4698 11.984C17.5655 12.0797 17.6193 12.2096 17.6193 12.3449C17.6193 12.4803 17.5655 12.6101 17.4698 12.7059C17.3741 12.8016 17.2442 12.8554 17.1089 12.8554H12.3449C12.2096 12.8554 12.0797 12.8016 11.984 12.7059C11.8883 12.6101 11.8345 12.4803 11.8345 12.3449V7.58104C11.8345 7.44567 11.8883 7.31584 11.984 7.22012C12.0797 7.12439 12.2096 7.07062 12.3449 7.07062C12.4803 7.07062 12.6101 7.12439 12.7059 7.22012C12.8016 7.31584 12.8554 7.44567 12.8554 7.58104V11.8345H17.1089Z" fill="#36393C"/>
</svg>
