<svg width="24" height="24" viewBox="0 0 24 24" fill="none" xmlns="http://www.w3.org/2000/svg">
<rect width="24" height="24" rx="4" fill="#57BEBC"/>
<path d="M9.54991 17.5754C9.41658 17.5754 9.29158 17.5546 9.17491 17.5129C9.05824 17.4712 8.94991 17.4004 8.84991 17.3004L4.54991 13.0004C4.36658 12.8171 4.27908 12.5796 4.28741 12.2879C4.29574 11.9962 4.39158 11.7587 4.57491 11.5754C4.75824 11.3921 4.99158 11.3004 5.27491 11.3004C5.55824 11.3004 5.79158 11.3921 5.97491 11.5754L9.54991 15.1504L18.0249 6.67539C18.2082 6.49206 18.4457 6.40039 18.7374 6.40039C19.0291 6.40039 19.2666 6.49206 19.4499 6.67539C19.6332 6.85872 19.7249 7.09622 19.7249 7.38789C19.7249 7.67956 19.6332 7.91706 19.4499 8.10039L10.2499 17.3004C10.1499 17.4004 10.0416 17.4712 9.92491 17.5129C9.80824 17.5546 9.68324 17.5754 9.54991 17.5754Z" fill="white"/>
</svg>
