<svg width="36" height="36" viewBox="0 0 36 36" fill="none" xmlns="http://www.w3.org/2000/svg">
<path d="M18 11C16.6155 11 15.2622 11.4105 14.111 12.1797C12.9599 12.9489 12.0627 14.0421 11.5328 15.3212C11.003 16.6003 10.8644 18.0078 11.1345 19.3656C11.4046 20.7235 12.0713 21.9708 13.0503 22.9497C14.0292 23.9287 15.2765 24.5954 16.6344 24.8655C17.9922 25.1356 19.3997 24.997 20.6788 24.4672C21.9579 23.9373 23.0511 23.0401 23.8203 21.889C24.5895 20.7378 25 19.3845 25 18C24.998 16.1441 24.2599 14.3647 22.9476 13.0524C21.6353 11.7401 19.8559 11.002 18 11ZM20.5348 19.7729C20.5848 19.8229 20.6245 19.8823 20.6516 19.9477C20.6787 20.013 20.6926 20.0831 20.6926 20.1538C20.6926 20.2246 20.6787 20.2947 20.6516 20.36C20.6245 20.4254 20.5848 20.4848 20.5348 20.5348C20.4848 20.5848 20.4254 20.6245 20.36 20.6516C20.2947 20.6787 20.2246 20.6926 20.1538 20.6926C20.0831 20.6926 20.013 20.6787 19.9477 20.6516C19.8823 20.6245 19.8229 20.5848 19.7729 20.5348L18 18.7612L16.2271 20.5348C16.1771 20.5848 16.1177 20.6245 16.0523 20.6516C15.987 20.6787 15.9169 20.6926 15.8462 20.6926C15.7754 20.6926 15.7053 20.6787 15.64 20.6516C15.5746 20.6245 15.5152 20.5848 15.4652 20.5348C15.4152 20.4848 15.3755 20.4254 15.3484 20.36C15.3213 20.2947 15.3074 20.2246 15.3074 20.1538C15.3074 20.0831 15.3213 20.013 15.3484 19.9477C15.3755 19.8823 15.4152 19.8229 15.4652 19.7729L17.2388 18L15.4652 16.2271C15.3642 16.1261 15.3074 15.989 15.3074 15.8462C15.3074 15.7033 15.3642 15.5662 15.4652 15.4652C15.5662 15.3642 15.7033 15.3074 15.8462 15.3074C15.989 15.3074 16.1261 15.3642 16.2271 15.4652L18 17.2387L19.7729 15.4652C19.8229 15.4152 19.8823 15.3755 19.9477 15.3484C20.013 15.3213 20.0831 15.3074 20.1538 15.3074C20.2246 15.3074 20.2947 15.3213 20.36 15.3484C20.4254 15.3755 20.4848 15.4152 20.5348 15.4652C20.5848 15.5152 20.6245 15.5746 20.6516 15.64C20.6787 15.7053 20.6926 15.7754 20.6926 15.8462C20.6926 15.9169 20.6787 15.987 20.6516 16.0523C20.6245 16.1177 20.5848 16.1771 20.5348 16.2271L18.7613 18L20.5348 19.7729Z" fill="#DDE0E4"/>
</svg>
