<svg width="24" height="24" viewBox="0 0 24 24" fill="none" xmlns="http://www.w3.org/2000/svg">
<path d="M18.8135 9.13858L12.4502 15.8045C12.3911 15.8665 12.3209 15.9156 12.2437 15.9492C12.1664 15.9827 12.0836 16 12 16C11.9164 16 11.8336 15.9827 11.7563 15.9492C11.6791 15.9156 11.6089 15.8665 11.5498 15.8045L5.18648 9.13858C5.06708 9.0135 5 8.84385 5 8.66696C5 8.49007 5.06708 8.32043 5.18648 8.19535C5.30588 8.07027 5.46783 8 5.63669 8C5.80554 8 5.96749 8.07027 6.08689 8.19535L12 14.3905L17.9131 8.19535C17.9722 8.13342 18.0424 8.08429 18.1197 8.05077C18.1969 8.01725 18.2797 8 18.3633 8C18.4469 8 18.5297 8.01725 18.607 8.05077C18.6842 8.08429 18.7544 8.13342 18.8135 8.19535C18.8726 8.25728 18.9195 8.33081 18.9515 8.41173C18.9835 8.49265 19 8.57938 19 8.66696C19 8.75455 18.9835 8.84128 18.9515 8.9222C18.9195 9.00312 18.8726 9.07664 18.8135 9.13858Z" fill="#AFB8C1"/>
</svg>
