<svg width="16" height="12" viewBox="0 0 16 12" fill="none" xmlns="http://www.w3.org/2000/svg">
<path d="M5.26304 11.175C5.12971 11.175 5.00471 11.1542 4.88804 11.1125C4.77138 11.0708 4.66304 11 4.56304 10.9L0.263043 6.6C0.0797101 6.41667 -0.00778986 6.17917 0.000543478 5.8875C0.00887681 5.59583 0.10471 5.35833 0.288043 5.175C0.471377 4.99167 0.70471 4.9 0.988043 4.9C1.27138 4.9 1.50471 4.99167 1.68804 5.175L5.26304 8.75L13.738 0.275C13.9214 0.0916667 14.1589 0 14.4505 0C14.7422 0 14.9797 0.0916667 15.163 0.275C15.3464 0.458333 15.438 0.695833 15.438 0.9875C15.438 1.27917 15.3464 1.51667 15.163 1.7L5.96304 10.9C5.86304 11 5.75471 11.0708 5.63804 11.1125C5.52138 11.1542 5.39638 11.175 5.26304 11.175Z" fill="#CDD2D8"/>
</svg>
