<svg width="24" height="24" viewBox="0 0 24 24" fill="none" xmlns="http://www.w3.org/2000/svg">
<circle cx="13.3889" cy="12.3889" r="7.38892" fill="#CBEBEA"/>
<path d="M18.7324 5.31262C17.9216 4.47719 16.8232 4.00746 15.6777 4.00626C14.5322 4.00507 13.4329 4.4725 12.6205 5.30624L11.5019 6.38136L10.3833 5.30624C9.57149 4.46912 8.47082 3.99925 7.32345 4C6.17607 4.00075 5.07598 4.47205 4.26518 5.31023C3.45437 6.1484 2.99928 7.28479 3 8.46941C3.00073 9.65402 3.45721 10.7898 4.26904 11.6269L11.172 18.8576C11.2151 18.9027 11.2665 18.9385 11.3231 18.963C11.3798 18.9874 11.4405 19 11.5019 19C11.5633 19 11.624 18.9874 11.6806 18.963C11.7373 18.9385 11.7886 18.9027 11.8317 18.8576L18.7324 11.6301C19.1343 11.2154 19.4531 10.7229 19.6706 10.1809C19.8881 9.63895 20 9.05803 20 8.47137C20 7.88471 19.8881 7.30379 19.6706 6.7618C19.4531 6.21982 19.1343 5.72738 18.7324 5.31262ZM18.0743 10.9554L11.5019 17.84L4.9272 10.953C4.29348 10.2941 3.93851 9.40279 3.94005 8.47425C3.94158 7.5457 4.29949 6.65563 4.93538 5.99899C5.57128 5.34236 6.43331 4.97269 7.33267 4.97095C8.23203 4.96922 9.09539 5.33557 9.73365 5.98975C9.7374 5.99389 9.74154 5.99763 9.74601 6.00092L11.1859 7.38549C11.2717 7.46801 11.3846 7.5139 11.5019 7.5139C11.6191 7.5139 11.732 7.46801 11.8178 7.38549L13.2578 6.00012C13.2622 5.99683 13.2664 5.99309 13.2701 5.98895C13.5855 5.66138 13.9604 5.40132 14.3734 5.22368C14.7864 5.04603 15.2292 4.9543 15.6766 4.95375C16.124 4.95319 16.567 5.04382 16.9804 5.22044C17.3938 5.39706 17.7693 5.6562 18.0855 5.98298C18.4016 6.30977 18.6522 6.69778 18.8228 7.12476C18.9934 7.55175 19.0807 8.0093 19.0796 8.47119C19.0786 8.93307 18.9892 9.3902 18.8167 9.81636C18.6442 10.2425 18.3919 10.6293 18.0743 10.9546V10.9554Z" fill="#36393C"/>
</svg>
