<svg width="36" height="36" viewBox="0 0 36 36" fill="none" xmlns="http://www.w3.org/2000/svg">
<path d="M23.349 20.5094L20.8156 17.976C20.9212 17.7517 21.0003 17.5241 21.0531 17.2932C21.1059 17.0623 21.1323 16.8149 21.1323 16.551C21.1323 15.5615 20.7859 14.7203 20.0932 14.0276C19.4005 13.3349 18.5594 12.9885 17.5698 12.9885C17.3059 12.9885 17.0585 13.0149 16.8276 13.0677C16.5967 13.1205 16.3691 13.1997 16.1448 13.3052L14.126 11.2865C14.667 11.0622 15.2212 10.8939 15.7885 10.7818C16.3559 10.6696 16.9497 10.6135 17.5698 10.6135C19.4566 10.6135 21.1521 11.1116 22.6562 12.1078C24.1604 13.104 25.2885 14.4003 26.0406 15.9969C26.0802 16.0628 26.1066 16.1453 26.1198 16.2443C26.133 16.3432 26.1396 16.4455 26.1396 16.551C26.1396 16.6566 26.1297 16.7589 26.1099 16.8578C26.0901 16.9568 26.067 17.0392 26.0406 17.1052C25.7372 17.7781 25.3578 18.4049 24.9026 18.9854C24.4474 19.566 23.9295 20.074 23.349 20.5094ZM23.1906 24.7844L20.4198 22.0531C19.958 22.1983 19.4929 22.3071 19.0245 22.3797C18.5561 22.4523 18.0712 22.4885 17.5698 22.4885C15.683 22.4885 13.9875 21.9905 12.4833 20.9943C10.9792 19.9981 9.85104 18.7017 9.09896 17.1052C9.05937 17.0392 9.03299 16.9568 9.01979 16.8578C9.0066 16.7589 9 16.6566 9 16.551C9 16.4455 9.0066 16.3465 9.01979 16.2542C9.03299 16.1618 9.05937 16.0826 9.09896 16.0167C9.37604 15.4229 9.7059 14.8753 10.0885 14.374C10.4712 13.8726 10.8934 13.4108 11.3552 12.9885L9.7125 11.326C9.56736 11.1809 9.49479 10.9995 9.49479 10.7818C9.49479 10.5641 9.57396 10.376 9.73229 10.2177C9.87743 10.0726 10.0622 10 10.2865 10C10.5108 10 10.6955 10.0726 10.8406 10.2177L24.299 23.676C24.4441 23.8212 24.52 24.0026 24.5266 24.2203C24.5332 24.438 24.4573 24.626 24.299 24.7844C24.1538 24.9295 23.9691 25.0021 23.7448 25.0021C23.5205 25.0021 23.3358 24.9295 23.1906 24.7844ZM17.5698 20.1135C17.7149 20.1135 17.8502 20.1069 17.9755 20.0938C18.1009 20.0806 18.2361 20.0542 18.3812 20.0146L14.1062 15.7396C14.0667 15.8847 14.0403 16.02 14.0271 16.1453C14.0139 16.2707 14.0073 16.4059 14.0073 16.551C14.0073 17.5406 14.3536 18.3818 15.0464 19.0745C15.7391 19.7672 16.5802 20.1135 17.5698 20.1135ZM19.6677 16.8281L17.2927 14.4531C18.0448 14.3344 18.6583 14.5455 19.1333 15.0865C19.6083 15.6274 19.7865 16.208 19.6677 16.8281Z" fill="#CDD2D8"/>
</svg>
