<svg width="24" height="24" viewBox="0 0 24 24" fill="none" xmlns="http://www.w3.org/2000/svg">
<path d="M14.854 11.854L9.85403 16.854C9.80757 16.9005 9.75242 16.9373 9.69173 16.9625C9.63103 16.9876 9.56598 17.0006 9.50028 17.0006C9.43458 17.0006 9.36953 16.9876 9.30883 16.9625C9.24813 16.9373 9.19298 16.9005 9.14653 16.854C9.10007 16.8076 9.06322 16.7524 9.03808 16.6917C9.01294 16.631 9 16.566 9 16.5003C9 16.4346 9.01294 16.3695 9.03808 16.3088C9.06322 16.2481 9.10007 16.193 9.14653 16.1465L13.7934 11.5003L9.14653 6.85403C9.05271 6.76021 9 6.63296 9 6.50028C9 6.3676 9.05271 6.24035 9.14653 6.14653C9.24035 6.05271 9.3676 6 9.50028 6C9.63296 6 9.76021 6.05271 9.85403 6.14653L14.854 11.1465C14.9005 11.193 14.9374 11.2481 14.9626 11.3088C14.9877 11.3695 15.0007 11.4346 15.0007 11.5003C15.0007 11.566 14.9877 11.631 14.9626 11.6917C14.9374 11.7524 14.9005 11.8076 14.854 11.854Z" fill="white"/>
</svg>
