<svg width="16" height="16" viewBox="0 0 16 16" fill="none" xmlns="http://www.w3.org/2000/svg">
<rect width="16" height="16" fill="white"/>
<path d="M10.854 7.85403L5.85403 12.854C5.80757 12.9005 5.75242 12.9373 5.69173 12.9625C5.63103 12.9876 5.56598 13.0006 5.50028 13.0006C5.43458 13.0006 5.36953 12.9876 5.30883 12.9625C5.24813 12.9373 5.19298 12.9005 5.14653 12.854C5.10007 12.8076 5.06322 12.7524 5.03808 12.6917C5.01294 12.631 5 12.566 5 12.5003C5 12.4346 5.01294 12.3695 5.03808 12.3088C5.06322 12.2481 5.10007 12.193 5.14653 12.1465L9.7934 7.50028L5.14653 2.85403C5.05271 2.76021 5 2.63296 5 2.50028C5 2.3676 5.05271 2.24035 5.14653 2.14653C5.24035 2.05271 5.3676 2 5.50028 2C5.63296 2 5.76021 2.05271 5.85403 2.14653L10.854 7.14653C10.9005 7.19296 10.9374 7.24811 10.9626 7.30881C10.9877 7.36951 11.0007 7.43457 11.0007 7.50028C11.0007 7.56599 10.9877 7.63105 10.9626 7.69175C10.9374 7.75245 10.9005 7.80759 10.854 7.85403Z" fill="#BDC5CC"/>
</svg>
