<svg width="24" height="24" viewBox="0 0 24 24" fill="none" xmlns="http://www.w3.org/2000/svg">
<g id="done_FILL0_wght400_GRAD0_opsz24 (1) 1">
<path id="Vector" d="M9.45462 18C9.31644 18 9.18689 17.9776 9.06597 17.9329C8.94506 17.8881 8.83278 17.8121 8.72914 17.7047L4.27262 13.0872C4.08261 12.8904 3.99193 12.6353 4.00056 12.3221C4.0092 12.0089 4.10852 11.7539 4.29853 11.557C4.48854 11.3602 4.73036 11.2617 5.02401 11.2617C5.31766 11.2617 5.55948 11.3602 5.74949 11.557L9.45462 15.396L18.2381 6.2953C18.4281 6.09843 18.6743 6 18.9766 6C19.2788 6 19.525 6.09843 19.715 6.2953C19.905 6.49217 20 6.7472 20 7.0604C20 7.3736 19.905 7.62864 19.715 7.8255L10.1801 17.7047C10.0765 17.8121 9.96419 17.8881 9.84327 17.9329C9.72236 17.9776 9.59281 18 9.45462 18Z" fill="#418F8D"/>
</g>
</svg>
