<svg width="24" height="24" viewBox="0 0 24 24" fill="none" xmlns="http://www.w3.org/2000/svg">
<g id="ic_book">
<rect id="Rectangle 8059" x="6" y="7" width="16" height="13" rx="1" fill="#CBEBEA"/>
<path id="Vector" d="M19.0938 5H14.0938C13.5955 5.00037 13.1053 5.12616 12.6684 5.36577C12.2315 5.60538 11.8619 5.95111 11.5938 6.37109C11.3256 5.95111 10.956 5.60538 10.5191 5.36577C10.0822 5.12616 9.59204 5.00037 9.09375 5H4.09375C3.80367 5 3.52547 5.11523 3.32035 5.32035C3.11523 5.52547 3 5.80367 3 6.09375V16.0938C3 16.3838 3.11523 16.662 3.32035 16.8671C3.52547 17.0723 3.80367 17.1875 4.09375 17.1875H9.09375C9.63247 17.1875 10.1491 17.4015 10.5301 17.7824C10.911 18.1634 11.125 18.68 11.125 19.2188C11.125 19.3431 11.1744 19.4623 11.2623 19.5502C11.3502 19.6381 11.4694 19.6875 11.5938 19.6875C11.7181 19.6875 11.8373 19.6381 11.9252 19.5502C12.0131 19.4623 12.0625 19.3431 12.0625 19.2188C12.0625 18.68 12.2765 18.1634 12.6574 17.7824C13.0384 17.4015 13.555 17.1875 14.0938 17.1875H19.0938C19.3838 17.1875 19.662 17.0723 19.8671 16.8671C20.0723 16.662 20.1875 16.3838 20.1875 16.0938V6.09375C20.1875 5.80367 20.0723 5.52547 19.8671 5.32035C19.662 5.11523 19.3838 5 19.0938 5ZM9.09375 16.25H4.09375C4.05231 16.25 4.01257 16.2335 3.98326 16.2042C3.95396 16.1749 3.9375 16.1352 3.9375 16.0938V6.09375C3.9375 6.05231 3.95396 6.01257 3.98326 5.98326C4.01257 5.95396 4.05231 5.9375 4.09375 5.9375H9.09375C9.63247 5.9375 10.1491 6.15151 10.5301 6.53244C10.911 6.91337 11.125 7.43003 11.125 7.96875V17.0555C10.5755 16.5376 9.84882 16.2494 9.09375 16.25ZM19.25 16.0938C19.25 16.1352 19.2335 16.1749 19.2042 16.2042C19.1749 16.2335 19.1352 16.25 19.0938 16.25H14.0938C13.3386 16.2497 12.6119 16.5381 12.0625 17.0563V7.96875C12.0625 7.43003 12.2765 6.91337 12.6574 6.53244C13.0384 6.15151 13.555 5.9375 14.0938 5.9375H19.0938C19.1352 5.9375 19.1749 5.95396 19.2042 5.98326C19.2335 6.01257 19.25 6.05231 19.25 6.09375V11.0938V16.0938Z" fill="#36393C"/>
</g>
</svg>
