<svg width="24" height="24" viewBox="0 0 24 24" fill="none" xmlns="http://www.w3.org/2000/svg">
<g id="ic_bookinformation">
<g id="Group 34105">
<rect id="Rectangle 8048" x="6" y="6.34375" width="15" height="15" rx="1" fill="#CBEBEA"/>
<path id="Vector" d="M15.5625 10.0938C15.5625 10.2181 15.5131 10.3373 15.4252 10.4252C15.3373 10.5131 15.2181 10.5625 15.0938 10.5625H10.0938C9.96943 10.5625 9.8502 10.5131 9.76229 10.4252C9.67439 10.3373 9.625 10.2181 9.625 10.0938C9.625 9.96943 9.67439 9.8502 9.76229 9.76229C9.8502 9.67439 9.96943 9.625 10.0938 9.625H15.0938C15.2181 9.625 15.3373 9.67439 15.4252 9.76229C15.5131 9.8502 15.5625 9.96943 15.5625 10.0938ZM15.0938 12.125H10.0938C9.96943 12.125 9.8502 12.1744 9.76229 12.2623C9.67439 12.3502 9.625 12.4694 9.625 12.5938C9.625 12.7181 9.67439 12.8373 9.76229 12.9252C9.8502 13.0131 9.96943 13.0625 10.0938 13.0625H15.0938C15.2181 13.0625 15.3373 13.0131 15.4252 12.9252C15.5131 12.8373 15.5625 12.7181 15.5625 12.5938C15.5625 12.4694 15.5131 12.3502 15.4252 12.2623C15.3373 12.1744 15.2181 12.125 15.0938 12.125ZM18.6875 5.09375V17.5938C18.6875 17.8838 18.5723 18.162 18.3671 18.3671C18.162 18.5723 17.8838 18.6875 17.5938 18.6875H5.09375C4.80367 18.6875 4.52547 18.5723 4.32035 18.3671C4.11523 18.162 4 17.8838 4 17.5938V5.09375C4 4.80367 4.11523 4.52547 4.32035 4.32035C4.52547 4.11523 4.80367 4 5.09375 4H17.5938C17.8838 4 18.162 4.11523 18.3671 4.32035C18.5723 4.52547 18.6875 4.80367 18.6875 5.09375ZM5.09375 17.75H7.125V4.9375H5.09375C5.05231 4.9375 5.01257 4.95396 4.98326 4.98326C4.95396 5.01257 4.9375 5.05231 4.9375 5.09375V17.5938C4.9375 17.6352 4.95396 17.6749 4.98326 17.7042C5.01257 17.7335 5.05231 17.75 5.09375 17.75ZM17.75 5.09375C17.75 5.05231 17.7335 5.01257 17.7042 4.98326C17.6749 4.95396 17.6352 4.9375 17.5938 4.9375H8.0625V17.75H17.5938C17.6352 17.75 17.6749 17.7335 17.7042 17.7042C17.7335 17.6749 17.75 17.6352 17.75 17.5938V5.09375Z" fill="#36393C"/>
</g>
</g>
</svg>
