<svg width="24" height="24" viewBox="0 0 24 24" fill="none" xmlns="http://www.w3.org/2000/svg">
<g id="ic_coin">
<g id="Group 34102">
<circle id="Ellipse 43" cx="14" cy="12.9688" r="7" fill="#CBEBEA"/>
<path id="Vector" d="M11.9688 4C10.3927 4 8.85201 4.46736 7.54155 5.34298C6.2311 6.21859 5.20972 7.46314 4.60659 8.91924C4.00345 10.3753 3.84564 11.9776 4.15312 13.5234C4.4606 15.0692 5.21955 16.4891 6.334 17.6035C7.44845 18.718 8.86834 19.4769 10.4141 19.7844C11.9599 20.0919 13.5622 19.9341 15.0183 19.3309C16.4744 18.7278 17.7189 17.7064 18.5945 16.396C19.4701 15.0855 19.9375 13.5448 19.9375 11.9688C19.935 9.85607 19.0947 7.83063 17.6008 6.33673C16.1069 4.84284 14.0814 4.00248 11.9688 4ZM11.9688 19C10.5781 19 9.21868 18.5876 8.0624 17.815C6.90612 17.0424 6.0049 15.9443 5.47273 14.6595C4.94055 13.3747 4.8013 11.9609 5.07261 10.597C5.34391 9.23309 6.01357 7.98024 6.99691 6.99691C7.98025 6.01357 9.2331 5.34391 10.597 5.0726C11.961 4.8013 13.3747 4.94054 14.6595 5.47272C15.9443 6.0049 17.0424 6.90611 17.815 8.0624C18.5876 9.21868 19 10.5781 19 11.9688C18.9979 13.8329 18.2565 15.6201 16.9383 16.9383C15.6201 18.2565 13.8329 18.9979 11.9688 19ZM14.9375 13.5312C14.9375 14.07 14.7235 14.5866 14.3426 14.9676C13.9616 15.3485 13.445 15.5625 12.9063 15.5625H12.4375V16.3438C12.4375 16.4681 12.3881 16.5873 12.3002 16.6752C12.2123 16.7631 12.0931 16.8125 11.9688 16.8125C11.8444 16.8125 11.7252 16.7631 11.6373 16.6752C11.5494 16.5873 11.5 16.4681 11.5 16.3438V15.5625H10.0938C9.96943 15.5625 9.85021 15.5131 9.7623 15.4252C9.67439 15.3373 9.625 15.2181 9.625 15.0938C9.625 14.9694 9.67439 14.8502 9.7623 14.7623C9.85021 14.6744 9.96943 14.625 10.0938 14.625H12.9063C13.1963 14.625 13.4745 14.5098 13.6797 14.3046C13.8848 14.0995 14 13.8213 14 13.5312C14 13.2412 13.8848 12.963 13.6797 12.7579C13.4745 12.5527 13.1963 12.4375 12.9063 12.4375H11.0313C10.4925 12.4375 9.97588 12.2235 9.59494 11.8426C9.21401 11.4616 9 10.945 9 10.4062C9 9.86753 9.21401 9.35087 9.59494 8.96994C9.97588 8.58901 10.4925 8.375 11.0313 8.375H11.5V7.59375C11.5 7.46943 11.5494 7.3502 11.6373 7.26229C11.7252 7.17439 11.8444 7.125 11.9688 7.125C12.0931 7.125 12.2123 7.17439 12.3002 7.26229C12.3881 7.3502 12.4375 7.46943 12.4375 7.59375V8.375H13.8438C13.9681 8.375 14.0873 8.42439 14.1752 8.51229C14.2631 8.6002 14.3125 8.71943 14.3125 8.84375C14.3125 8.96807 14.2631 9.0873 14.1752 9.17521C14.0873 9.26311 13.9681 9.3125 13.8438 9.3125H11.0313C10.7412 9.3125 10.463 9.42773 10.2579 9.63285C10.0527 9.83797 9.9375 10.1162 9.9375 10.4062C9.9375 10.6963 10.0527 10.9745 10.2579 11.1796C10.463 11.3848 10.7412 11.5 11.0313 11.5H12.9063C13.445 11.5 13.9616 11.714 14.3426 12.0949C14.7235 12.4759 14.9375 12.9925 14.9375 13.5312Z" fill="#36393C"/>
</g>
</g>
</svg>
