<svg width="24" height="24" viewBox="0 0 24 24" fill="none" xmlns="http://www.w3.org/2000/svg">
<g id="ic_field">
<g id="Group 34104">
<circle id="Ellipse 43" cx="14" cy="14" r="7" fill="#CBEBEA"/>
<path id="Vector" d="M11.9688 4C10.3927 4 8.85201 4.46736 7.54155 5.34298C6.2311 6.21859 5.20972 7.46314 4.60659 8.91924C4.00345 10.3753 3.84564 11.9776 4.15312 13.5234C4.4606 15.0692 5.21955 16.4891 6.334 17.6035C7.44845 18.718 8.86834 19.4769 10.4141 19.7844C11.9599 20.0919 13.5622 19.9341 15.0183 19.3309C16.4744 18.7278 17.7189 17.7064 18.5945 16.396C19.4701 15.0855 19.9375 13.5448 19.9375 11.9688C19.935 9.85607 19.0947 7.83063 17.6008 6.33673C16.1069 4.84284 14.0814 4.00248 11.9688 4ZM12.4375 18.9844V16.3438C12.4375 16.2194 12.3881 16.1002 12.3002 16.0123C12.2123 15.9244 12.0931 15.875 11.9688 15.875C11.8444 15.875 11.7252 15.9244 11.6373 16.0123C11.5494 16.1002 11.5 16.2194 11.5 16.3438V18.9844C9.80187 18.8684 8.20317 18.1415 6.99961 16.9379C5.79605 15.7343 5.06907 14.1356 4.95313 12.4375H7.59375C7.71807 12.4375 7.8373 12.3881 7.92521 12.3002C8.01312 12.2123 8.0625 12.0931 8.0625 11.9688C8.0625 11.8444 8.01312 11.7252 7.92521 11.6373C7.8373 11.5494 7.71807 11.5 7.59375 11.5H4.95313C5.06907 9.80186 5.79605 8.20316 6.99961 6.9996C8.20317 5.79605 9.80187 5.06906 11.5 4.95313V7.59375C11.5 7.71807 11.5494 7.8373 11.6373 7.92521C11.7252 8.01311 11.8444 8.0625 11.9688 8.0625C12.0931 8.0625 12.2123 8.01311 12.3002 7.92521C12.3881 7.8373 12.4375 7.71807 12.4375 7.59375V4.95313C14.1356 5.06906 15.7343 5.79605 16.9379 6.9996C18.1415 8.20316 18.8684 9.80186 18.9844 11.5H16.3438C16.2194 11.5 16.1002 11.5494 16.0123 11.6373C15.9244 11.7252 15.875 11.8444 15.875 11.9688C15.875 12.0931 15.9244 12.2123 16.0123 12.3002C16.1002 12.3881 16.2194 12.4375 16.3438 12.4375H18.9844C18.8684 14.1356 18.1415 15.7343 16.9379 16.9379C15.7343 18.1415 14.1356 18.8684 12.4375 18.9844Z" fill="#36393C"/>
</g>
</g>
</svg>
