<svg width="24" height="24" viewBox="0 0 24 24" fill="none" xmlns="http://www.w3.org/2000/svg">
<g id="ic_people">
<g id="Group 34103">
<circle id="Ellipse 43" cx="15" cy="14.0957" r="7" fill="#CBEBEA"/>
<path id="Vector" d="M10.4661 14.4733C11.3365 13.9799 12.0192 13.2123 12.4076 12.2902C12.796 11.3681 12.8683 10.3434 12.6132 9.37587C12.3581 8.40838 11.7899 7.55254 10.9973 6.94185C10.2047 6.33117 9.23227 6 8.2317 6C7.23114 6 6.25871 6.33117 5.46612 6.94185C4.67353 7.55254 4.10535 8.40838 3.85023 9.37587C3.5951 10.3434 3.66738 11.3681 4.05578 12.2902C4.44418 13.2123 5.12686 13.9799 5.99733 14.4733C4.38402 14.9876 2.99853 16.0446 2.07623 17.4647C2.00827 17.5688 1.98445 17.6957 2.01002 17.8174C2.03559 17.939 2.10844 18.0456 2.21256 18.1135C2.31668 18.1815 2.44353 18.2053 2.56521 18.1798C2.68689 18.1542 2.79343 18.0813 2.86139 17.9772C3.44311 17.0828 4.23902 16.3478 5.17686 15.839C6.11469 15.3303 7.16475 15.0638 8.2317 15.0638C9.29866 15.0638 10.3487 15.3303 11.2865 15.839C12.2244 16.3478 13.0203 17.0828 13.602 17.9772C13.6744 18.07 13.779 18.1321 13.8951 18.1513C14.0112 18.1705 14.1303 18.1453 14.2287 18.0808C14.3271 18.0163 14.3976 17.9171 14.4262 17.8029C14.4549 17.6888 14.4395 17.5681 14.3833 17.4647C13.4619 16.0453 12.0779 14.9884 10.4661 14.4733ZM4.63795 10.5335C4.63795 9.82268 4.84872 9.12787 5.24361 8.53688C5.63849 7.94589 6.19976 7.48527 6.85643 7.21327C7.5131 6.94127 8.23569 6.8701 8.93281 7.00876C9.62993 7.14743 10.2703 7.4897 10.7729 7.9923C11.2755 8.49489 11.6177 9.13524 11.7564 9.83236C11.8951 10.5295 11.8239 11.2521 11.5519 11.9087C11.2799 12.5654 10.8193 13.1267 10.2283 13.5216C9.63729 13.9164 8.94248 14.1272 8.2317 14.1272C7.27896 14.126 6.3656 13.7469 5.69191 13.0733C5.01822 12.3996 4.63919 11.4862 4.63795 10.5335ZM21.1223 18.1116C21.0183 18.1795 20.8916 18.2033 20.77 18.1778C20.6484 18.1523 20.5419 18.0796 20.4739 17.9756C19.8932 17.0811 19.0979 16.3462 18.1604 15.8377C17.223 15.3293 16.1732 15.0635 15.1067 15.0647C14.9824 15.0647 14.8632 15.0153 14.7752 14.9274C14.6873 14.8395 14.638 14.7203 14.638 14.596C14.638 14.4716 14.6873 14.3524 14.7752 14.2645C14.8632 14.1766 14.9824 14.1272 15.1067 14.1272C15.6359 14.1267 16.1585 14.0093 16.637 13.7834C17.1156 13.5575 17.5384 13.2287 17.8752 12.8205C18.212 12.4123 18.4544 11.9347 18.5853 11.4219C18.7161 10.9092 18.7321 10.3738 18.632 9.85416C18.532 9.33449 18.3184 8.84333 18.0066 8.41577C17.6947 7.9882 17.2923 7.63479 16.8281 7.38077C16.3638 7.12675 15.8492 6.97841 15.3209 6.94632C14.7927 6.91424 14.2639 6.99922 13.7723 7.19518C13.7151 7.21862 13.6537 7.2305 13.5919 7.23013C13.53 7.22975 13.4688 7.21714 13.4119 7.19301C13.3549 7.16888 13.3033 7.13371 13.26 7.08953C13.2167 7.04536 13.1825 6.99304 13.1595 6.93561C13.1365 6.87818 13.1251 6.81676 13.126 6.7549C13.1269 6.69304 13.1399 6.63196 13.1645 6.57519C13.1891 6.51841 13.2247 6.46706 13.2692 6.4241C13.3137 6.38114 13.3663 6.34741 13.4239 6.32487C14.4902 5.89977 15.678 5.89519 16.7475 6.31206C17.817 6.72892 18.6885 7.53616 19.1858 8.57071C19.6832 9.60526 19.7693 10.79 19.4269 11.8856C19.0845 12.9812 18.339 13.9061 17.3411 14.4733C18.9544 14.9876 20.3399 16.0446 21.2622 17.4647C21.3292 17.5691 21.3521 17.6958 21.3259 17.817C21.2997 17.9383 21.2265 18.0442 21.1223 18.1116Z" fill="#36393C"/>
</g>
</g>
</svg>
