<svg width="24" height="24" viewBox="0 0 24 24" fill="none" xmlns="http://www.w3.org/2000/svg">
<g id="ic_preinformation">
<g id="Group 34120">
<rect id="Rectangle 8049" x="5.34375" y="6" width="15" height="15" rx="1" fill="#CBEBEA"/>
<path id="Vector" d="M17.6875 5.09375V17.5938C17.6875 17.8838 17.5723 18.162 17.3671 18.3671C17.162 18.5723 16.8838 18.6875 16.5938 18.6875H10.9688C10.8444 18.6875 10.7252 18.6381 10.6373 18.5502C10.5494 18.4623 10.5 18.3431 10.5 18.2188C10.5 18.0944 10.5494 17.9752 10.6373 17.8873C10.7252 17.7994 10.8444 17.75 10.9688 17.75H16.5938C16.6352 17.75 16.6749 17.7335 16.7042 17.7042C16.7335 17.6749 16.75 17.6352 16.75 17.5938V5.09375C16.75 5.05231 16.7335 5.01257 16.7042 4.98326C16.6749 4.95396 16.6352 4.9375 16.5938 4.9375H4.09375C4.05231 4.9375 4.01257 4.95396 3.98326 4.98326C3.95396 5.01257 3.9375 5.05231 3.9375 5.09375V12.5938C3.9375 12.7181 3.88811 12.8373 3.80021 12.9252C3.7123 13.0131 3.59307 13.0625 3.46875 13.0625C3.34443 13.0625 3.2252 13.0131 3.13729 12.9252C3.04939 12.8373 3 12.7181 3 12.5938V5.09375C3 4.80367 3.11523 4.52547 3.32035 4.32035C3.52547 4.11523 3.80367 4 4.09375 4H16.5938C16.8838 4 17.162 4.11523 17.3671 4.32035C17.5723 4.52547 17.6875 4.80367 17.6875 5.09375ZM9.3875 13.5125L5.34375 17.5555L3.8 16.0125C3.71114 15.9297 3.59361 15.8846 3.47217 15.8868C3.35074 15.8889 3.23487 15.9381 3.14899 16.024C3.0631 16.1099 3.01391 16.2257 3.01177 16.3472C3.00962 16.4686 3.0547 16.5861 3.1375 16.675L5.0125 18.55C5.10039 18.6378 5.21953 18.6871 5.34375 18.6871C5.46797 18.6871 5.58711 18.6378 5.675 18.55L10.05 14.175C10.1328 14.0861 10.1779 13.9686 10.1757 13.8472C10.1736 13.7257 10.1244 13.6099 10.0385 13.524C9.95263 13.4381 9.83676 13.3889 9.71533 13.3868C9.59389 13.3846 9.47636 13.4297 9.3875 13.5125Z" fill="#36393C"/>
</g>
</g>
</svg>
