<svg width="28" height="28" viewBox="0 0 28 28" fill="none" xmlns="http://www.w3.org/2000/svg">
<g id="ic_pin">
<g id="Group 34121">
<circle id="Ellipse 42" cx="15.5" cy="12.5" r="9.5" fill="#CBEBEA"/>
<path id="Vector" d="M17.6163 23.8H12.202C13.165 22.965 14.0671 22.0606 14.9012 21.094C17.5827 17.974 19 14.694 19 11.6C19 9.31914 18.1045 7.13169 16.5104 5.51888C14.9163 3.90607 12.7543 3 10.5 3C8.24566 3 6.08365 3.90607 4.48959 5.51888C2.89553 7.13169 2 9.31914 2 11.6C2 14.691 3.41733 17.974 6.09878 21.094C6.93293 22.0606 7.83503 22.965 8.79802 23.8H3.38372C3.22644 23.8 3.0756 23.8632 2.96439 23.9757C2.85318 24.0883 2.7907 24.2409 2.7907 24.4C2.7907 24.5591 2.85318 24.7117 2.96439 24.8243C3.0756 24.9368 3.22644 25 3.38372 25H17.6163C17.7736 25 17.9244 24.9368 18.0356 24.8243C18.1468 24.7117 18.2093 24.5591 18.2093 24.4C18.2093 24.2409 18.1468 24.0883 18.0356 23.9757C17.9244 23.8632 17.7736 23.8 17.6163 23.8ZM3.18605 11.6C3.18605 9.6374 3.95662 7.75518 5.32825 6.36741C6.69989 4.97964 8.56022 4.2 10.5 4.2C12.4398 4.2 14.3001 4.97964 15.6717 6.36741C17.0434 7.75518 17.814 9.6374 17.814 11.6C17.814 17.562 11.9826 22.493 10.5 23.651C9.01744 22.493 3.18605 17.562 3.18605 11.6ZM14.2558 11.6C14.2558 10.8484 14.0355 10.1137 13.6228 9.48883C13.2102 8.86393 12.6236 8.37687 11.9373 8.08926C11.251 7.80164 10.4958 7.72639 9.76728 7.87302C9.03872 8.01964 8.3695 8.38156 7.84424 8.91299C7.31898 9.44443 6.96127 10.1215 6.81635 10.8587C6.67143 11.5958 6.74581 12.3598 7.03008 13.0542C7.31435 13.7486 7.79574 14.342 8.41338 14.7596C9.03102 15.1771 9.75717 15.4 10.5 15.4C11.4961 15.4 12.4514 14.9996 13.1558 14.287C13.8601 13.5744 14.2558 12.6078 14.2558 11.6ZM7.93023 11.6C7.93023 11.0858 8.08095 10.5831 8.36332 10.1555C8.64569 9.72795 9.04703 9.3947 9.51659 9.19791C9.98616 9.00113 10.5029 8.94964 11.0013 9.04996C11.4998 9.15028 11.9577 9.39791 12.3171 9.76152C12.6765 10.1251 12.9212 10.5884 13.0204 11.0928C13.1195 11.5971 13.0687 12.1199 12.8742 12.595C12.6797 13.0701 12.3503 13.4761 11.9277 13.7618C11.5051 14.0475 11.0083 14.2 10.5 14.2C9.81846 14.2 9.16483 13.9261 8.6829 13.4385C8.20098 12.9509 7.93023 12.2896 7.93023 11.6Z" fill="#36393C"/>
</g>
</g>
</svg>
