<svg width="24" height="24" viewBox="0 0 24 24" fill="none" xmlns="http://www.w3.org/2000/svg">
<g id="ic_person">
<g id="Group 34117">
<circle id="Ellipse 43" cx="14" cy="13" r="7" fill="#CBEBEA"/>
<path id="Vector" d="M19.9266 18.2953C18.6882 16.2071 16.7439 14.7418 14.4848 14.1203C15.5831 13.5755 16.4614 12.6856 16.9781 11.5942C17.4947 10.5027 17.6196 9.2732 17.3325 8.104C17.0454 6.93481 16.3632 5.89402 15.3958 5.14947C14.4283 4.40492 13.2321 4 12 4C10.7679 4 9.57166 4.40492 8.60424 5.14947C7.63682 5.89402 6.95457 6.93481 6.6675 8.104C6.38044 9.2732 6.50529 10.5027 7.02193 11.5942C7.53857 12.6856 8.41688 13.5755 9.51524 14.1203C7.25608 14.741 5.31182 16.2063 4.07336 18.2953C4.03935 18.3475 4.01652 18.4059 4.00623 18.4669C3.99594 18.528 3.99841 18.5904 4.0135 18.6505C4.02858 18.7106 4.05596 18.767 4.09399 18.8165C4.13202 18.866 4.17991 18.9075 4.23479 18.9384C4.28967 18.9694 4.3504 18.9892 4.41333 18.9967C4.47626 19.0041 4.54008 18.9991 4.60096 18.9818C4.66184 18.9646 4.71851 18.9355 4.76758 18.8964C4.81665 18.8572 4.85709 18.8088 4.88647 18.754C6.39127 16.217 9.04993 14.7028 12 14.7028C14.9501 14.7028 17.6087 16.217 19.1135 18.754C19.1429 18.8088 19.1834 18.8572 19.2324 18.8964C19.2815 18.9355 19.3382 18.9646 19.399 18.9818C19.4599 18.9991 19.5237 19.0041 19.5867 18.9967C19.6496 18.9892 19.7103 18.9694 19.7652 18.9384C19.8201 18.9075 19.868 18.866 19.906 18.8165C19.944 18.767 19.9714 18.7106 19.9865 18.6505C20.0016 18.5904 20.0041 18.528 19.9938 18.4669C19.9835 18.4059 19.9606 18.3475 19.9266 18.2953ZM7.45662 9.35218C7.45662 8.47535 7.72308 7.6182 8.22231 6.88914C8.72155 6.16008 9.43113 5.59184 10.2613 5.25629C11.0915 4.92074 12.005 4.83295 12.8864 5.00401C13.7677 5.17507 14.5773 5.59731 15.2127 6.21733C15.8481 6.83734 16.2808 7.62729 16.4561 8.48728C16.6314 9.34726 16.5414 10.2387 16.1975 11.0488C15.8537 11.8588 15.2713 12.5512 14.5242 13.0384C13.777 13.5255 12.8986 13.7855 12 13.7855C10.7955 13.7841 9.64068 13.3166 8.78895 12.4855C7.93721 11.6544 7.45807 10.5275 7.45662 9.35218Z" fill="#36393C"/>
</g>
</g>
</svg>
