<svg width="24" height="24" viewBox="0 0 24 24" fill="none" xmlns="http://www.w3.org/2000/svg">
<g id="ic_people">
<path id="Vector" d="M3.69444 18.0694C3.49535 18.0694 3.32985 18.0035 3.19792 17.8715C3.06597 17.7396 3 17.5741 3 17.375V15.9861C3 15.5046 3.12384 15.066 3.37152 14.6701C3.6192 14.2743 3.95832 13.9769 4.38887 13.7778C5.35185 13.338 6.25231 13.0174 7.09027 12.816C7.92823 12.6146 8.78703 12.5139 9.66667 12.5139C10.5463 12.5139 11.4028 12.6146 12.2361 12.816C13.0694 13.0174 13.9676 13.338 14.9305 13.7778C15.3611 13.9769 15.7025 14.2743 15.9549 14.6701C16.2072 15.066 16.3333 15.5046 16.3333 15.9861V17.375C16.3333 17.5741 16.2674 17.7396 16.1354 17.8715C16.0035 18.0035 15.838 18.0694 15.6389 18.0694H3.69444ZM17.2847 18.0694C17.419 18.0185 17.5255 17.9294 17.6041 17.8021C17.6829 17.6748 17.7222 17.5208 17.7222 17.3403V15.9306C17.7222 15.1435 17.5173 14.4688 17.1076 13.9063C16.6979 13.3438 16.1481 12.8796 15.4583 12.5139C16.3333 12.6157 17.1574 12.772 17.9305 12.9826C18.7037 13.1933 19.3565 13.4398 19.8889 13.7222C20.3611 13.9907 20.7292 14.3113 20.993 14.684C21.2569 15.0567 21.3889 15.4722 21.3889 15.9306V17.375C21.3889 17.5741 21.3229 17.7396 21.191 17.8715C21.059 18.0035 20.8935 18.0694 20.6944 18.0694H17.2847ZM9.66667 11.3889C8.75 11.3889 7.98842 11.0856 7.38194 10.4792C6.77545 9.87268 6.47221 9.1111 6.47221 8.19444C6.47221 7.27777 6.77545 6.5162 7.38194 5.90973C7.98842 5.30324 8.75 5 9.66667 5C10.5833 5 11.3449 5.30324 11.9514 5.90973C12.5579 6.5162 12.8611 7.27777 12.8611 8.19444C12.8611 9.1111 12.5579 9.87268 11.9514 10.4792C11.3449 11.0856 10.5833 11.3889 9.66667 11.3889ZM17.4444 8.19444C17.4444 9.1111 17.1412 9.87268 16.5347 10.4792C15.9282 11.0856 15.1666 11.3889 14.25 11.3889C14.0972 11.3889 13.919 11.3761 13.7153 11.3507C13.5116 11.3252 13.3333 11.287 13.1805 11.2361C13.5278 10.8565 13.7928 10.4074 13.9757 9.88888C14.1585 9.37036 14.25 8.80555 14.25 8.19444C14.25 7.58333 14.1585 7.02777 13.9757 6.52777C13.7928 6.02777 13.5278 5.56944 13.1805 5.15277C13.3472 5.10185 13.5254 5.06366 13.7153 5.03819C13.9051 5.01273 14.0833 5 14.25 5C15.1666 5 15.9282 5.30324 16.5347 5.90973C17.1412 6.5162 17.4444 7.27777 17.4444 8.19444Z" fill="#57BEBC"/>
</g>
</svg>
