<svg width="24" height="24" viewBox="0 0 24 24" fill="none" xmlns="http://www.w3.org/2000/svg">
<g id="ic_quotes">
<g id="Group 34108">
<rect id="Rectangle 8052" x="4.96875" y="7.46875" width="16" height="11" rx="1" fill="#CBEBEA"/>
<path id="Vector" d="M8.78125 5H4.09375C3.80367 5 3.52547 5.11523 3.32035 5.32035C3.11523 5.52547 3 5.80367 3 6.09375V11.0938C3 11.3838 3.11523 11.662 3.32035 11.8671C3.52547 12.0723 3.80367 12.1875 4.09375 12.1875H8.9375V12.9688C8.9375 13.6732 8.65765 14.3489 8.1595 14.847C7.66136 15.3451 6.98573 15.625 6.28125 15.625C6.15693 15.625 6.0377 15.6744 5.94979 15.7623C5.86189 15.8502 5.8125 15.9694 5.8125 16.0938C5.8125 16.2181 5.86189 16.3373 5.94979 16.4252C6.0377 16.5131 6.15693 16.5625 6.28125 16.5625C7.23399 16.5613 8.14735 16.1822 8.82104 15.5085C9.49474 14.8349 9.87376 13.9215 9.875 12.9688V6.09375C9.875 5.80367 9.75977 5.52547 9.55465 5.32035C9.34953 5.11523 9.07133 5 8.78125 5ZM8.9375 11.25H4.09375C4.05231 11.25 4.01257 11.2335 3.98326 11.2042C3.95396 11.1749 3.9375 11.1352 3.9375 11.0938V6.09375C3.9375 6.05231 3.95396 6.01257 3.98326 5.98326C4.01257 5.95396 4.05231 5.9375 4.09375 5.9375H8.78125C8.82269 5.9375 8.86243 5.95396 8.89174 5.98326C8.92104 6.01257 8.9375 6.05231 8.9375 6.09375V11.25ZM17.8438 5H13.1562C12.8662 5 12.588 5.11523 12.3829 5.32035C12.1777 5.52547 12.0625 5.80367 12.0625 6.09375V11.0938C12.0625 11.3838 12.1777 11.662 12.3829 11.8671C12.588 12.0723 12.8662 12.1875 13.1562 12.1875H18V12.9688C18 13.6732 17.7201 14.3489 17.222 14.847C16.7239 15.3451 16.0482 15.625 15.3438 15.625C15.2194 15.625 15.1002 15.6744 15.0123 15.7623C14.9244 15.8502 14.875 15.9694 14.875 16.0938C14.875 16.2181 14.9244 16.3373 15.0123 16.4252C15.1002 16.5131 15.2194 16.5625 15.3438 16.5625C16.2965 16.5613 17.2099 16.1822 17.8835 15.5085C18.5572 14.8349 18.9363 13.9215 18.9375 12.9688V6.09375C18.9375 5.80367 18.8223 5.52547 18.6171 5.32035C18.412 5.11523 18.1338 5 17.8438 5ZM18 11.25H13.1562C13.1148 11.25 13.0751 11.2335 13.0458 11.2042C13.0165 11.1749 13 11.1352 13 11.0938V6.09375C13 6.05231 13.0165 6.01257 13.0458 5.98326C13.0751 5.95396 13.1148 5.9375 13.1562 5.9375H17.8438C17.8852 5.9375 17.9249 5.95396 17.9542 5.98326C17.9835 6.01257 18 6.05231 18 6.09375V11.25Z" fill="#36393C"/>
</g>
</g>
</svg>
