<svg width="6" height="11" viewBox="0 0 6 11" fill="none" xmlns="http://www.w3.org/2000/svg">
<path d="M5.85403 5.85403L0.854028 10.854C0.807573 10.9005 0.752423 10.9373 0.691726 10.9625C0.63103 10.9876 0.565975 11.0006 0.500278 11.0006C0.434581 11.0006 0.369526 10.9876 0.30883 10.9625C0.248133 10.9373 0.192983 10.9005 0.146528 10.854C0.100073 10.8076 0.0632225 10.7524 0.0380812 10.6917C0.0129398 10.631 0 10.566 0 10.5003C0 10.4346 0.0129398 10.3695 0.0380812 10.3088C0.0632225 10.2481 0.100073 10.193 0.146528 10.1465L4.7934 5.50028L0.146528 0.854028C0.0527074 0.760208 -9.88558e-10 0.63296 0 0.500278C9.88559e-10 0.367596 0.0527074 0.240348 0.146528 0.146528C0.240348 0.0527077 0.367596 9.88558e-10 0.500278 0C0.63296 -9.88558e-10 0.760208 0.0527077 0.854028 0.146528L5.85403 5.14653C5.90052 5.19296 5.9374 5.24811 5.96256 5.30881C5.98772 5.36951 6.00067 5.43457 6.00067 5.50028C6.00067 5.56599 5.98772 5.63105 5.96256 5.69175C5.9374 5.75245 5.90052 5.80759 5.85403 5.85403Z" fill="white"/>
</svg>
