<svg width="90" height="37" viewBox="0 0 90 37" fill="none" xmlns="http://www.w3.org/2000/svg">
<path d="M31.8125 23.4859C31.8125 23.1135 31.8328 22.7716 31.8734 22.4602C31.9208 22.1419 31.9885 21.8 32.0766 21.4344H34.118V22.2773C34.118 22.7445 34.1451 23.1576 34.1992 23.5164C34.2602 23.8753 34.3549 24.1799 34.4836 24.4305C34.619 24.6742 34.7951 24.8604 35.0117 24.9891C35.2352 25.1109 35.506 25.1719 35.8242 25.1719C36.3253 25.1719 36.7078 25.0365 36.9719 24.7656C37.2359 24.488 37.368 24.0852 37.368 23.557C37.368 23.2862 37.3477 23.0391 37.307 22.8156C37.2732 22.5854 37.2089 22.3586 37.1141 22.1352C37.026 21.9117 36.9042 21.6781 36.7484 21.4344C36.5927 21.1839 36.393 20.9062 36.1492 20.6016L33.407 17.3414C32.9195 16.7185 32.5438 16.0922 32.2797 15.4625C32.0156 14.826 31.8836 14.149 31.8836 13.4312C31.8836 12.8557 31.9716 12.3276 32.1477 11.8469C32.3305 11.3661 32.5911 10.9531 32.9297 10.6078C33.2682 10.2557 33.6846 9.98489 34.1789 9.79531C34.6799 9.59896 35.2453 9.50078 35.875 9.50078C36.6401 9.50078 37.2766 9.60911 37.7844 9.82578C38.299 10.0424 38.7086 10.3268 39.0133 10.6789C39.318 11.031 39.5313 11.4271 39.6531 11.8672C39.7818 12.3005 39.8461 12.7372 39.8461 13.1773C39.8461 13.5497 39.8156 13.8951 39.7547 14.2133C39.7005 14.5247 39.6362 14.8701 39.5617 15.2492H37.5305V14.4266C37.5305 13.5057 37.3984 12.8016 37.1344 12.3141C36.8703 11.8198 36.4404 11.5727 35.8445 11.5727C35.3503 11.5727 34.9813 11.7115 34.7375 11.9891C34.4938 12.2599 34.3719 12.6255 34.3719 13.0859C34.3719 13.3297 34.3888 13.5497 34.4227 13.7461C34.4633 13.9424 34.5174 14.1253 34.5852 14.2945C34.6596 14.457 34.7477 14.6161 34.8492 14.7719C34.9508 14.9276 35.0659 15.0901 35.1945 15.2594L38.2516 18.9562C38.8068 19.6807 39.2333 20.3781 39.5313 21.0484C39.8292 21.712 39.9781 22.4161 39.9781 23.1609C39.9781 23.7771 39.8799 24.3323 39.6836 24.8266C39.494 25.3208 39.2198 25.7406 38.8609 26.0859C38.5021 26.4312 38.0688 26.6987 37.5609 26.8883C37.0531 27.0711 36.481 27.1625 35.8445 27.1625C35.0591 27.1625 34.4057 27.0576 33.8844 26.8477C33.3698 26.6378 32.9568 26.3602 32.6453 26.0148C32.3406 25.6695 32.124 25.2768 31.9953 24.8367C31.8734 24.3966 31.8125 23.9464 31.8125 23.4859ZM46.0313 27.1523C45.7536 27.1523 45.4523 27.1286 45.1273 27.0813C44.8023 27.0406 44.4807 26.9492 44.1625 26.807C43.8443 26.6648 43.5362 26.4651 43.2383 26.2078C42.9471 25.9437 42.6865 25.5984 42.4563 25.1719C42.2328 24.7453 42.0534 24.2206 41.918 23.5977C41.7826 22.968 41.7148 22.2198 41.7148 21.3531V15.2086C41.7148 14.3352 41.7826 13.5904 41.918 12.9742C42.0602 12.3513 42.2464 11.8299 42.4766 11.4102C42.7068 10.9836 42.9674 10.6451 43.2586 10.3945C43.5565 10.144 43.8646 9.95443 44.1828 9.82578C44.5078 9.69036 44.8294 9.60234 45.1477 9.56172C45.4659 9.52109 45.7604 9.50078 46.0313 9.50078C46.2885 9.50078 46.5729 9.52109 46.8844 9.56172C47.2026 9.59557 47.5174 9.67682 47.8289 9.80547C48.1471 9.92734 48.4552 10.1135 48.7531 10.3641C49.051 10.6078 49.3151 10.943 49.5453 11.3695C49.7755 11.7893 49.9583 12.3141 50.0938 12.9437C50.2359 13.5667 50.307 14.3216 50.307 15.2086V21.3531C50.307 22.213 50.2359 22.9544 50.0938 23.5773C49.9516 24.1935 49.7654 24.7182 49.5352 25.1516C49.3049 25.5781 49.0375 25.9234 48.7328 26.1875C48.4349 26.4448 48.1268 26.6479 47.8086 26.7969C47.4971 26.9391 47.1857 27.0339 46.8742 27.0813C46.5628 27.1286 46.2818 27.1523 46.0313 27.1523ZM46.0313 25.1719C46.2885 25.1719 46.512 25.1279 46.7016 25.0398C46.8979 24.9518 47.057 24.7995 47.1789 24.5828C47.3076 24.3661 47.4023 24.0818 47.4633 23.7297C47.531 23.3708 47.5648 22.9206 47.5648 22.3789V14.4875C47.5648 13.9323 47.531 13.4685 47.4633 13.0961C47.4023 12.7237 47.3076 12.4258 47.1789 12.2023C47.057 11.9721 46.8979 11.8096 46.7016 11.7148C46.512 11.6201 46.2885 11.5727 46.0313 11.5727C45.7672 11.5727 45.537 11.6201 45.3406 11.7148C45.1443 11.8096 44.9818 11.9721 44.8531 12.2023C44.7245 12.4258 44.6263 12.7237 44.5586 13.0961C44.4977 13.4685 44.4672 13.9323 44.4672 14.4875V22.3789C44.4672 22.9206 44.4977 23.3708 44.5586 23.7297C44.6263 24.0818 44.7245 24.3661 44.8531 24.5828C44.9818 24.7995 45.1443 24.9518 45.3406 25.0398C45.537 25.1279 45.7672 25.1719 46.0313 25.1719ZM52.7953 9.65312H55.4258C55.7576 9.65312 56.1198 9.67005 56.5125 9.70391C56.912 9.73099 57.3081 9.80208 57.7008 9.91719C58.1003 10.0255 58.4828 10.1948 58.8484 10.425C59.2208 10.6552 59.5492 10.9701 59.8336 11.3695C60.118 11.7622 60.3448 12.2565 60.5141 12.8523C60.6901 13.4482 60.7781 14.1727 60.7781 15.0258V15.6352C60.7781 16.5628 60.6969 17.3583 60.5344 18.0219C60.3786 18.6786 60.1688 19.2339 59.9047 19.6875C59.6406 20.1344 59.3326 20.4932 58.9805 20.7641C58.6352 21.0349 58.2729 21.2414 57.8938 21.3836C57.5214 21.519 57.1422 21.6104 56.7563 21.6578C56.3771 21.6984 56.0182 21.7187 55.6797 21.7187H55.4258V27H52.7953V9.65312ZM55.5578 19.7891C56.0318 19.7891 56.4313 19.7214 56.7563 19.5859C57.0813 19.4437 57.3385 19.2271 57.5281 18.9359C57.7245 18.638 57.8633 18.2589 57.9445 17.7984C58.0326 17.3312 58.0766 16.7727 58.0766 16.1227V14.5586C58.0766 14.044 58.0393 13.6005 57.9648 13.2281C57.8904 12.849 57.7549 12.5375 57.5586 12.2937C57.369 12.05 57.1117 11.8706 56.7867 11.7555C56.4617 11.6336 56.0521 11.5727 55.5578 11.5727H55.4258V19.7891H55.5578ZM62.7688 9.65312H65.3992V16.9148H68.5172V9.65312H71.1477V27H68.5172V18.9867H65.3992V27H62.7688V9.65312ZM76.2055 21.2211L72.7117 9.65312H75.3625L77.4852 17.9508H77.607L79.7094 9.65312H82.35L78.8359 21.2211V27H76.2055V21.2211Z" fill="white"/>
<path d="M23.3004 12.0834V9H8.20421C7.61962 9 7.05897 9.23243 6.6456 9.64616C6.23223 10.0599 6 10.621 6 11.2061V24.9153H9.08848V12.0834H23.3004Z" fill="#97E7E5"/>
<path d="M23.3004 12.0835V24.9154H9.0885V28.0001H23.7957C24.3803 28.0001 24.941 27.7677 25.3543 27.3539C25.7677 26.9402 25.9999 26.3791 25.9999 25.794V12.0835H23.3004Z" fill="#97E7E5"/>
<path d="M23.3004 12.0847H9.0885V24.9205H23.3004V12.0847Z" fill="#6FBFBD"/>
<path d="M21.2376 23.087V10.355C20.3701 11.9862 11.9942 12.0836 11.9942 12.0836H9.0885V24.9155H12.0045C12.0045 24.9155 20.3701 24.7143 21.2376 23.0818" fill="white"/>
</svg>
