<svg width="49" height="48" viewBox="0 0 49 48" fill="none" xmlns="http://www.w3.org/2000/svg">
<rect x="12.5" y="14" width="32" height="26" rx="1" fill="#CBEBEA"/>
<path d="M38.6875 10H28.6875C27.6909 10.0007 26.7105 10.2523 25.8367 10.7315C24.9629 11.2108 24.2238 11.9022 23.6875 12.7422C23.1512 11.9022 22.4121 11.2108 21.5383 10.7315C20.6645 10.2523 19.6841 10.0007 18.6875 10H8.6875C8.10734 10 7.55094 10.2305 7.1407 10.6407C6.73047 11.0509 6.5 11.6073 6.5 12.1875V32.1875C6.5 32.7677 6.73047 33.3241 7.1407 33.7343C7.55094 34.1445 8.10734 34.375 8.6875 34.375H18.6875C19.7649 34.375 20.7983 34.803 21.5601 35.5649C22.322 36.3267 22.75 37.3601 22.75 38.4375C22.75 38.6861 22.8488 38.9246 23.0246 39.1004C23.2004 39.2762 23.4389 39.375 23.6875 39.375C23.9361 39.375 24.1746 39.2762 24.3504 39.1004C24.5262 38.9246 24.625 38.6861 24.625 38.4375C24.625 37.3601 25.053 36.3267 25.8149 35.5649C26.5767 34.803 27.6101 34.375 28.6875 34.375H38.6875C39.2677 34.375 39.8241 34.1445 40.2343 33.7343C40.6445 33.3241 40.875 32.7677 40.875 32.1875V12.1875C40.875 11.6073 40.6445 11.0509 40.2343 10.6407C39.8241 10.2305 39.2677 10 38.6875 10ZM18.6875 32.5H8.6875C8.60462 32.5 8.52513 32.4671 8.46653 32.4085C8.40792 32.3499 8.375 32.2704 8.375 32.1875V12.1875C8.375 12.1046 8.40792 12.0251 8.46653 11.9665C8.52513 11.9079 8.60462 11.875 8.6875 11.875H18.6875C19.7649 11.875 20.7983 12.303 21.5601 13.0649C22.322 13.8267 22.75 14.8601 22.75 15.9375V34.1109C21.6511 33.0751 20.1976 32.4988 18.6875 32.5ZM39 32.1875C39 32.2704 38.9671 32.3499 38.9085 32.4085C38.8499 32.4671 38.7704 32.5 38.6875 32.5H28.6875C27.1772 32.4993 25.7237 33.0762 24.625 34.1125V15.9375C24.625 14.8601 25.053 13.8267 25.8149 13.0649C26.5767 12.303 27.6101 11.875 28.6875 11.875H38.6875C38.7704 11.875 38.8499 11.9079 38.9085 11.9665C38.9671 12.0251 39 12.1046 39 12.1875V22.1875V32.1875Z" fill="#36393C"/>
</svg>
