<svg width="6" height="11" viewBox="0 0 6 11" fill="none" xmlns="http://www.w3.org/2000/svg">
<path id="Vector" d="M5.85337 5.85373L0.853933 10.8535C0.807483 10.8999 0.752339 10.9368 0.691649 10.9619C0.630959 10.9871 0.565912 11 0.500222 11C0.434532 11 0.369485 10.9871 0.308795 10.9619C0.248106 10.9368 0.192961 10.8999 0.146511 10.8535C0.100061 10.807 0.0632154 10.7519 0.0380769 10.6912C0.0129384 10.6305 0 10.5654 0 10.4997C0 10.4341 0.0129384 10.369 0.0380769 10.3083C0.0632154 10.2476 0.100061 10.1925 0.146511 10.146L4.79287 5.5L0.146511 0.853985C0.0527015 0.760169 -9.88447e-10 0.632928 0 0.500253C9.88448e-10 0.367577 0.0527015 0.240336 0.146511 0.146521C0.240321 0.052705 0.367555 9.88508e-10 0.500222 0C0.632889 -9.88508e-10 0.760123 0.052705 0.853933 0.146521L5.85337 5.14627C5.89986 5.1927 5.93673 5.24784 5.96189 5.30854C5.98705 5.36924 6 5.4343 6 5.5C6 5.5657 5.98705 5.63076 5.96189 5.69146C5.93673 5.75216 5.89986 5.8073 5.85337 5.85373Z" fill="#A1EFEE"/>
</svg>
