<svg width="28" height="34" viewBox="0 0 28 34" fill="none" xmlns="http://www.w3.org/2000/svg">
<g filter="url(#filter0_d_1083_6448)">
<path d="M23.625 3.5V21C23.625 21.2321 23.5328 21.4546 23.3687 21.6187C23.2046 21.7828 22.9821 21.875 22.75 21.875H7.875C7.41087 21.875 6.96575 22.0594 6.63756 22.3876C6.30937 22.7158 6.125 23.1609 6.125 23.625H21C21.2321 23.625 21.4546 23.7172 21.6187 23.8813C21.7828 24.0454 21.875 24.2679 21.875 24.5C21.875 24.7321 21.7828 24.9546 21.6187 25.1187C21.4546 25.2828 21.2321 25.375 21 25.375H5.25C5.01794 25.375 4.79538 25.2828 4.63128 25.1187C4.46719 24.9546 4.375 24.7321 4.375 24.5V6.125C4.375 5.19674 4.74375 4.3065 5.40013 3.65013C6.0565 2.99375 6.94674 2.625 7.875 2.625H22.75C22.9821 2.625 23.2046 2.71719 23.3687 2.88128C23.5328 3.04538 23.625 3.26794 23.625 3.5Z" fill="#4EABA9"/>
</g>
<defs>
<filter id="filter0_d_1083_6448" x="-4" y="0" width="36" height="36" filterUnits="userSpaceOnUse" color-interpolation-filters="sRGB">
<feFlood flood-opacity="0" result="BackgroundImageFix"/>
<feColorMatrix in="SourceAlpha" type="matrix" values="0 0 0 0 0 0 0 0 0 0 0 0 0 0 0 0 0 0 127 0" result="hardAlpha"/>
<feOffset dy="4"/>
<feGaussianBlur stdDeviation="2"/>
<feComposite in2="hardAlpha" operator="out"/>
<feColorMatrix type="matrix" values="0 0 0 0 0 0 0 0 0 0 0 0 0 0 0 0 0 0 0.25 0"/>
<feBlend mode="normal" in2="BackgroundImageFix" result="effect1_dropShadow_1083_6448"/>
<feBlend mode="normal" in="SourceGraphic" in2="effect1_dropShadow_1083_6448" result="shape"/>
</filter>
</defs>
</svg>
