<svg width="28" height="28" viewBox="0 0 28 28" fill="none" xmlns="http://www.w3.org/2000/svg">
<path d="M7.75948 24.7013V12.0295C7.75948 11.3973 7.98936 10.861 8.4491 10.4204C8.90885 9.97978 9.4548 9.75948 10.087 9.75948H22.7013C23.3334 9.75948 23.8746 9.98457 24.3247 10.4347C24.7749 10.8849 25 11.4261 25 12.0582V21.2532L19.2532 27H10.0582C9.42607 27 8.8849 26.7749 8.43474 26.3247C7.98457 25.8746 7.75948 25.3334 7.75948 24.7013ZM2.04138 8.89746C1.92644 8.2653 2.05096 7.69541 2.41492 7.18777C2.77889 6.68013 3.27695 6.36885 3.9091 6.25391L16.3797 4.04138C17.0119 3.92644 17.5818 4.05096 18.0894 4.41492C18.5971 4.77889 18.9083 5.27695 19.0233 5.9091L19.3106 7.46075H10.0582C8.79391 7.46075 7.71159 7.91092 6.81125 8.81125C5.91092 9.71159 5.46075 10.7939 5.46075 12.0582V23.0347C5.15425 22.8623 4.89085 22.6324 4.67056 22.3451C4.45026 22.0577 4.31138 21.7321 4.25391 21.3681L2.04138 8.89746ZM22.7013 20.1038H19.2532C18.9275 20.1038 18.6545 20.2139 18.4342 20.4342C18.2139 20.6545 18.1038 20.9275 18.1038 21.2532V24.7013L22.7013 20.1038Z" fill="#CDD2D8"/>
</svg>
