<svg width="28" height="28" viewBox="0 0 28 28" fill="none" xmlns="http://www.w3.org/2000/svg">
<path d="M14 13.5C12.35 13.5 10.9792 12.9542 9.88749 11.8625C8.79584 10.7708 8.25001 9.39999 8.25001 7.74999C8.25001 6.09999 8.79584 4.72916 9.88749 3.63751C10.9792 2.54584 12.35 2 14 2C15.65 2 17.0208 2.54584 18.1125 3.63751C19.2042 4.72916 19.75 6.09999 19.75 7.74999C19.75 9.39999 19.2042 10.7708 18.1125 11.8625C17.0208 12.9542 15.65 13.5 14 13.5ZM4.49998 25.525C3.80833 25.525 3.21875 25.2812 2.73125 24.7937C2.24375 24.3062 2 23.7167 2 23.025V21.775C2 20.8583 2.23125 20.0563 2.69375 19.3688C3.15625 18.6813 3.75834 18.1583 4.50001 17.8C6.13334 17.0417 7.72916 16.4729 9.28749 16.0937C10.8458 15.7146 12.4167 15.525 14 15.525C15.5833 15.525 17.15 15.7188 18.7 16.1063C20.25 16.4938 21.8417 17.0583 23.475 17.8C24.2333 18.1583 24.8438 18.6813 25.3063 19.3688C25.7688 20.0563 26 20.8583 26 21.775V23.025C26 23.7167 25.7563 24.3062 25.2688 24.7937C24.7813 25.2812 24.1917 25.525 23.5 25.525H4.49998Z" fill="#4EABA9"/>
<path d="M2 22H6V25.5273H4H3.4C2.6268 25.5273 2 24.9005 2 24.1273V22Z" fill="#4EABA9"/>
<path d="M26 22H22V25.5273H24H24.6C25.3732 25.5273 26 24.9005 26 24.1273V22Z" fill="#4EABA9"/>
</svg>
