<svg width="28" height="28" viewBox="0 0 28 28" fill="none" xmlns="http://www.w3.org/2000/svg">
<g clip-path="url(#clip0_1083_4705)">
<path d="M14 7C13.1347 7 12.2888 7.25659 11.5694 7.73732C10.8499 8.21805 10.2892 8.90133 9.95803 9.70076C9.62689 10.5002 9.54025 11.3799 9.70906 12.2285C9.87787 13.0772 10.2946 13.8567 10.9064 14.4686C11.5183 15.0804 12.2978 15.4971 13.1465 15.6659C13.9951 15.8347 14.8748 15.7481 15.6742 15.417C16.4737 15.0858 17.1569 14.5251 17.6377 13.8056C18.1184 13.0862 18.375 12.2403 18.375 11.375C18.375 10.2147 17.9141 9.10188 17.0936 8.28141C16.2731 7.46094 15.1603 7 14 7ZM14 14C13.4808 14 12.9733 13.846 12.5416 13.5576C12.1099 13.2692 11.7735 12.8592 11.5748 12.3795C11.3761 11.8999 11.3242 11.3721 11.4254 10.8629C11.5267 10.3537 11.7767 9.88596 12.1438 9.51884C12.511 9.15173 12.9787 8.90172 13.4879 8.80044C13.9971 8.69915 14.5249 8.75114 15.0045 8.94982C15.4842 9.1485 15.8942 9.48495 16.1826 9.91663C16.471 10.3483 16.625 10.8558 16.625 11.375C16.625 12.0712 16.3484 12.7389 15.8562 13.2312C15.3639 13.7234 14.6962 14 14 14ZM14 1.75C11.4482 1.75289 9.0017 2.76788 7.19729 4.57229C5.39288 6.37671 4.37789 8.82318 4.375 11.375C4.375 14.8094 5.96203 18.4494 8.96875 21.9023C10.3198 23.4626 11.8403 24.8677 13.5023 26.0914C13.6495 26.1945 13.8247 26.2498 14.0044 26.2498C14.184 26.2498 14.3593 26.1945 14.5064 26.0914C16.1654 24.8672 17.683 23.4622 19.0312 21.9023C22.0336 18.4494 23.625 14.8094 23.625 11.375C23.6221 8.82318 22.6071 6.37671 20.8027 4.57229C18.9983 2.76788 16.5518 1.75289 14 1.75ZM14 24.2812C12.192 22.8594 6.125 17.6367 6.125 11.375C6.125 9.28642 6.95468 7.28338 8.43153 5.80653C9.90838 4.32968 11.9114 3.5 14 3.5C16.0886 3.5 18.0916 4.32968 19.5685 5.80653C21.0453 7.28338 21.875 9.28642 21.875 11.375C21.875 17.6345 15.808 22.8594 14 24.2812Z" fill="#CDD2D8"/>
<path d="M14 1.75C11.4482 1.75289 9.0017 2.76788 7.19729 4.57229C5.39288 6.37671 4.37789 8.82318 4.375 11.375C4.375 19.6109 13.125 25.8311 13.498 26.0914C13.6451 26.1945 13.8204 26.2498 14 26.2498C14.1796 26.2498 14.3549 26.1945 14.502 26.0914C14.875 25.8311 23.625 19.6109 23.625 11.375C23.6221 8.82318 22.6071 6.37671 20.8027 4.57229C18.9983 2.76788 16.5518 1.75289 14 1.75ZM14 7.875C14.6922 7.875 15.3689 8.08027 15.9445 8.46486C16.5201 8.84944 16.9687 9.39607 17.2336 10.0356C17.4985 10.6751 17.5678 11.3789 17.4327 12.0578C17.2977 12.7367 16.9644 13.3604 16.4749 13.8499C15.9854 14.3394 15.3617 14.6727 14.6828 14.8077C14.0039 14.9428 13.3001 14.8735 12.6606 14.6086C12.0211 14.3437 11.4744 13.8951 11.0899 13.3195C10.7053 12.7439 10.5 12.0672 10.5 11.375C10.5 10.4467 10.8687 9.5565 11.5251 8.90013C12.1815 8.24375 13.0717 7.875 14 7.875Z" fill="#CDD2D8"/>
</g>
<defs>
<clipPath id="clip0_1083_4705">
<rect width="28" height="28" fill="white"/>
</clipPath>
</defs>
</svg>
