<svg width="20" height="20" viewBox="0 0 20 20" fill="none" xmlns="http://www.w3.org/2000/svg">
<g id="ic_next">
<path id="Vector" d="M13.5675 9.81754L7.31754 16.0675C7.25947 16.1256 7.19053 16.1717 7.11466 16.2031C7.03879 16.2345 6.95747 16.2507 6.87535 16.2507C6.79323 16.2507 6.71191 16.2345 6.63604 16.2031C6.56017 16.1717 6.49123 16.1256 6.43316 16.0675C6.37509 16.0095 6.32903 15.9405 6.2976 15.8647C6.26617 15.7888 6.25 15.7075 6.25 15.6253C6.25 15.5432 6.26617 15.4619 6.2976 15.386C6.32903 15.3102 6.37509 15.2412 6.43316 15.1832L12.2418 9.37535L6.43316 3.56753C6.31588 3.45026 6.25 3.2912 6.25 3.12535C6.25 2.9595 6.31588 2.80044 6.43316 2.68316C6.55044 2.56588 6.7095 2.5 6.87535 2.5C7.0412 2.5 7.20026 2.56588 7.31754 2.68316L13.5675 8.93316C13.6256 8.99121 13.6717 9.06014 13.7032 9.13601C13.7347 9.21188 13.7508 9.29321 13.7508 9.37535C13.7508 9.45748 13.7347 9.53881 13.7032 9.61469C13.6717 9.69056 13.6256 9.75949 13.5675 9.81754Z" fill="#AFB8C1"/>
</g>
</svg>
