<svg width="87" height="28" viewBox="0 0 87 28" fill="none" xmlns="http://www.w3.org/2000/svg">
<rect x="0.5" y="0.5" width="86" height="27" rx="13.5" stroke="#DDE0E4"/>
<path d="M31.2207 11.7305C31.2266 13.5 32.5098 15.2988 34.0449 15.9609L33.5293 16.6875C32.3105 16.1367 31.2617 14.9355 30.7754 13.4941C30.2891 15.0234 29.2344 16.3477 28.0449 16.9453L27.4941 16.2188C28.9883 15.5039 30.2891 13.5352 30.2949 11.7305V10.3711H27.834V9.60938H33.7051V10.3711H31.2207V11.7305ZM35.1582 18.9492V8.53125H36.084V18.9492H35.1582ZM46.502 15.2461V18.9492H45.5762V15.9844H39.4941V15.2461H46.502ZM38.0293 11.6133C38.0234 10.1602 39.1777 9.12305 40.7363 9.12891C41.6387 9.12305 42.4062 9.48047 42.8867 10.0664H45.5762V8.53125H46.502V14.6719H45.5762V13.1719H42.8926C42.4121 13.7637 41.6445 14.1152 40.7363 14.1094C39.1777 14.1211 38.0234 13.0957 38.0293 11.6133ZM38.9082 11.6133C38.9082 12.627 39.6699 13.3359 40.7363 13.3359C41.7617 13.3359 42.541 12.627 42.541 11.6133C42.541 10.6348 41.7617 9.91406 40.7363 9.91406C39.6699 9.91406 38.9082 10.6348 38.9082 11.6133ZM43.3086 12.4102H45.5762V10.8281H43.3027C43.3848 11.0742 43.4316 11.332 43.4316 11.6133C43.4316 11.8945 43.3848 12.1641 43.3086 12.4102ZM53.6621 9.5625V16.3359H48.8457V9.5625H53.6621ZM49.748 15.5859H52.7598V10.3008H49.748V15.5859ZM55.9004 18.9727V8.53125H56.8262V18.9727H55.9004ZM67.209 8.54297V16.1602H66.2949V8.54297H67.209ZM58.8535 11.8242C58.8477 10.3242 60.0254 9.27539 61.584 9.26953C63.1426 9.27539 64.3086 10.3242 64.3145 11.8242C64.3086 13.3418 63.1426 14.3965 61.584 14.3906C60.0254 14.3965 58.8477 13.3418 58.8535 11.8242ZM59.7559 11.8242C59.7441 12.8613 60.5293 13.582 61.584 13.582C62.6211 13.582 63.4121 12.8613 63.4121 11.8242C63.4121 10.8047 62.6211 10.0781 61.584 10.0781C60.5293 10.0781 59.7441 10.8047 59.7559 11.8242ZM60.4824 18.7266V15.3867H61.3965V17.9531H67.5371V18.7266H60.4824ZM78.4707 13.4883V14.25H68.9785V13.4883H78.4707ZM69.5176 12.1289C71.334 11.918 73.0859 11.0215 73.127 9.83203H69.8457V9.07031H77.627V9.83203H74.3223C74.3633 11.0098 76.0977 11.918 77.9434 12.1289L77.6035 12.8672C75.8984 12.6504 74.2988 11.8828 73.7246 10.7285C73.1504 11.8828 71.5625 12.6504 69.8457 12.8672L69.5176 12.1289ZM70.127 17.0508C70.1211 15.8555 71.4746 15.1641 73.7246 15.1641C75.957 15.1641 77.2988 15.8555 77.3105 17.0508C77.2988 18.2578 75.957 18.9258 73.7246 18.9258C71.4746 18.9258 70.1211 18.2578 70.127 17.0508ZM71.0645 17.0508C71.0527 17.7773 72.0547 18.1934 73.7246 18.1875C75.377 18.1934 76.3789 17.7773 76.3848 17.0508C76.3789 16.3184 75.377 15.9023 73.7246 15.8906C72.0547 15.9023 71.0527 16.3184 71.0645 17.0508Z" fill="#AFB8C1"/>
<path d="M13.3699 9.88743C13.0413 9.09502 13.7974 8.28382 14.6109 8.55605L24.2138 11.7696C24.9038 12.0005 25.1241 12.8675 24.628 13.3998L18.9042 19.5401C18.4081 20.0723 17.5277 19.9134 17.249 19.2413L13.3699 9.88743Z" fill="#DDE0E4"/>
<path d="M22.2908 12.1271L11.2951 8.04774H11.287C11.1322 7.99438 10.9654 7.98555 10.8058 8.02227C10.6462 8.05898 10.5001 8.13976 10.3841 8.25541C10.2681 8.37107 10.1869 8.51695 10.1498 8.67647C10.1126 8.83599 10.121 9.00273 10.1739 9.15774C10.1739 9.15774 10.1739 9.16336 10.1739 9.16586L14.2564 20.1615C14.3146 20.3333 14.4256 20.4823 14.5735 20.5872C14.7215 20.6922 14.8988 20.7477 15.0801 20.7459H15.0964C15.2814 20.7446 15.4611 20.6839 15.609 20.5728C15.7569 20.4616 15.8651 20.3058 15.9176 20.1284L17.3901 15.3434C17.3961 15.3239 17.4068 15.3063 17.4212 15.2919C17.4356 15.2775 17.4532 15.2669 17.4726 15.2609L22.2576 13.7884C22.4335 13.7341 22.5877 13.6258 22.6985 13.4788C22.8092 13.3318 22.8708 13.1537 22.8745 12.9697C22.8781 12.7857 22.8237 12.6053 22.7189 12.454C22.6141 12.3027 22.4643 12.1883 22.2908 12.1271ZM22.037 13.0715L17.2501 14.544C17.1138 14.586 16.9898 14.6606 16.8889 14.7615C16.7881 14.8624 16.7134 14.9864 16.6714 15.1227L15.1989 19.9077C15.1924 19.9337 15.1772 19.9567 15.1558 19.9727C15.1344 19.9888 15.1081 19.9969 15.0814 19.9959C15.0547 19.9982 15.0279 19.991 15.006 19.9756C14.984 19.9602 14.9682 19.9374 14.9614 19.9115C14.9616 19.909 14.9616 19.9065 14.9614 19.904L10.882 8.90961C10.8751 8.88779 10.8743 8.86449 10.8798 8.84226C10.8852 8.82003 10.8966 8.79971 10.9128 8.78353C10.929 8.76735 10.9493 8.75592 10.9715 8.75049C10.9938 8.74506 11.0171 8.74584 11.0389 8.75274L22.0333 12.8315H22.0408C22.0657 12.8401 22.0872 12.8563 22.1023 12.8779C22.1174 12.8995 22.1253 12.9253 22.1249 12.9516C22.1245 12.9779 22.1158 13.0035 22.1 13.0245C22.0842 13.0456 22.0622 13.0612 22.037 13.069V13.0715Z" fill="#AFB8C1"/>
</svg>
