<svg width="30" height="30" viewBox="0 0 30 30" fill="none" xmlns="http://www.w3.org/2000/svg">
<circle cx="16.8693" cy="14.9559" r="8.21692" fill="#CBEBEA"/>
<path d="M13.5878 8.79321C12.8373 8.79321 12.1037 9.01576 11.4796 9.43271C10.8556 9.84967 10.3693 10.4423 10.0821 11.1357C9.79485 11.8291 9.7197 12.592 9.86612 13.3281C10.0125 14.0642 10.3739 14.7403 10.9046 15.271C11.4353 15.8017 12.1114 16.1631 12.8475 16.3095C13.5836 16.456 14.3466 16.3808 15.04 16.0936C15.7333 15.8064 16.326 15.32 16.7429 14.696C17.1599 14.072 17.3824 13.3383 17.3824 12.5878C17.3824 11.5814 16.9827 10.6163 16.271 9.90462C15.5594 9.193 14.5942 8.79321 13.5878 8.79321ZM13.5878 15.1841C13.0743 15.1841 12.5724 15.0319 12.1454 14.7466C11.7184 14.4613 11.3856 14.0558 11.1891 13.5814C10.9926 13.107 10.9412 12.5849 11.0414 12.0813C11.1416 11.5777 11.3888 11.1151 11.752 10.752C12.1151 10.3888 12.5777 10.1416 13.0813 10.0414C13.5849 9.94121 14.107 9.99263 14.5814 10.1891C15.0558 10.3856 15.4613 10.7184 15.7466 11.1454C16.0319 11.5724 16.1841 12.0743 16.1841 12.5878C16.1841 13.2764 15.9106 13.9368 15.4237 14.4237C14.9368 14.9106 14.2764 15.1841 13.5878 15.1841ZM13.5878 4C11.311 4.00264 9.12819 4.90828 7.51824 6.51824C5.90828 8.12819 5.00264 10.311 5 12.5878C5 15.6745 6.43197 18.9528 9.14113 22.0684C10.3639 23.4815 11.7401 24.7542 13.2443 25.863C13.345 25.9335 13.4649 25.9713 13.5878 25.9713C13.7107 25.9713 13.8306 25.9335 13.9313 25.863C15.4356 24.7542 16.8117 23.4815 18.0345 22.0684C20.7437 18.9528 22.1757 15.6774 22.1757 12.5878C22.173 10.311 21.2674 8.12819 19.6574 6.51824C18.0475 4.90828 15.8646 4.00264 13.5878 4ZM13.5878 24.6218C12.0899 23.4654 6.1983 18.5414 6.1983 12.5878C6.1983 10.628 6.97684 8.74845 8.36264 7.36264C9.74845 5.97684 11.628 5.1983 13.5878 5.1983C15.5477 5.1983 17.4272 5.97684 18.813 7.36264C20.1988 8.74845 20.9774 10.628 20.9774 12.5878C20.9774 18.5414 15.0857 23.4654 13.5878 24.6218Z" fill="#36393C"/>
</svg>
