<svg width="18" height="18" viewBox="0 0 18 18" fill="none" xmlns="http://www.w3.org/2000/svg">
<path d="M5.36951 5.88609C5.0409 5.09368 5.79707 4.28247 6.61058 4.55471L16.2135 7.76824C16.9035 7.99914 17.1237 8.86617 16.6276 9.39841L10.9038 15.5387C10.4077 16.071 9.52737 15.9121 9.24864 15.24L5.36951 5.88609Z" fill="#CBEBEA"/>
<path d="M14.2907 8.12723L3.29508 4.04786H3.28696C3.1321 3.9945 2.96538 3.98567 2.80576 4.02239C2.64614 4.0591 2.50002 4.13988 2.38404 4.25553C2.26806 4.37119 2.18687 4.51707 2.14971 4.67659C2.11255 4.83611 2.12091 5.00286 2.17383 5.15786C2.17383 5.15786 2.17383 5.16348 2.17383 5.16598L6.25633 16.1616C6.31454 16.3334 6.42554 16.4824 6.57347 16.5873C6.72141 16.6923 6.89871 16.7478 7.08008 16.746H7.09633C7.28135 16.7448 7.46106 16.6841 7.60894 16.5729C7.75682 16.4617 7.86503 16.3059 7.91758 16.1285L9.39008 11.3435C9.39609 11.3241 9.40674 11.3064 9.42112 11.292C9.43549 11.2776 9.45316 11.267 9.47258 11.261L14.2576 9.78848C14.4334 9.73422 14.5877 9.62591 14.6984 9.47893C14.8092 9.33196 14.8707 9.15381 14.8744 8.96983C14.8781 8.78584 14.8236 8.60538 14.7189 8.45411C14.6141 8.30284 14.4642 8.18846 14.2907 8.12723ZM14.037 9.07161L9.25008 10.5441C9.11374 10.5861 8.98974 10.6608 8.88886 10.7616C8.78799 10.8625 8.71331 10.9865 8.67133 11.1229L7.19883 15.9079C7.19238 15.9338 7.17717 15.9568 7.15576 15.9728C7.13436 15.9889 7.10807 15.9971 7.08133 15.996C7.05459 15.9983 7.02787 15.9912 7.00591 15.9757C6.98395 15.9603 6.96816 15.9376 6.96133 15.9116C6.96158 15.9091 6.96158 15.9066 6.96133 15.9041L2.88196 4.90973C2.87506 4.88791 2.87428 4.86462 2.87971 4.84238C2.88514 4.82015 2.89657 4.79984 2.91275 4.78365C2.92893 4.76747 2.94925 4.75604 2.97148 4.75061C2.99371 4.74518 3.01701 4.74596 3.03883 4.75286L14.0332 8.83161H14.0407C14.0656 8.84022 14.0871 8.85646 14.1022 8.87803C14.1173 8.8996 14.1252 8.92539 14.1248 8.95172C14.1244 8.97805 14.1157 9.00357 14.0999 9.02465C14.0841 9.04573 14.0621 9.06129 14.037 9.06911V9.07161Z" fill="#36393C"/>
</svg>
