<svg width="40" height="40" viewBox="0 0 40 40" fill="none" xmlns="http://www.w3.org/2000/svg">
<circle cx="23.3366" cy="23.3337" r="11.6667" fill="#CBEBEA"/>
<circle cx="19.6667" cy="20" r="12.5" stroke="#36393C"/>
<path d="M20.1393 25.1367C17.9655 25.1367 16.4069 23.9404 16.3659 22.2109H18.444C18.4782 22.9492 19.196 23.4346 20.153 23.4414C21.1374 23.4346 21.8415 22.8877 21.8346 22.0879C21.8415 21.2812 21.1237 20.7139 19.9616 20.707H19.0456V19.1895H19.9616C20.9391 19.1895 21.6227 18.6562 21.6159 17.877C21.6227 17.1182 21.0417 16.5986 20.1667 16.6055C19.2917 16.5986 18.5739 17.0908 18.5397 17.8496H16.571C16.6051 16.1475 18.1364 14.9648 20.1667 14.9648C22.2311 14.9648 23.6051 16.1885 23.5983 17.7539C23.6051 18.8613 22.8327 19.6475 21.7253 19.8457V19.9277C23.1813 20.1055 23.9811 20.9873 23.9674 22.2246C23.9811 23.9199 22.3747 25.1367 20.1393 25.1367Z" fill="#181818"/>
</svg>
