<svg width="18" height="18" viewBox="0 0 18 18" fill="none" xmlns="http://www.w3.org/2000/svg">
<rect x="4.5" y="4.94531" width="11.25" height="11.25" rx="1" fill="#CBEBEA"/>
<path d="M13.1953 3.1875H11.6719V2.60156C11.6719 2.50832 11.6348 2.4189 11.5689 2.35297C11.503 2.28704 11.4136 2.25 11.3203 2.25C11.2271 2.25 11.1377 2.28704 11.0717 2.35297C11.0058 2.4189 10.9688 2.50832 10.9688 2.60156V3.1875H6.04688V2.60156C6.04688 2.50832 6.00984 2.4189 5.9439 2.35297C5.87797 2.28704 5.78855 2.25 5.69531 2.25C5.60207 2.25 5.51265 2.28704 5.44672 2.35297C5.38079 2.4189 5.34375 2.50832 5.34375 2.60156V3.1875H3.82031C3.60275 3.1875 3.3941 3.27393 3.24026 3.42776C3.08643 3.5816 3 3.79025 3 4.00781V13.3828C3 13.6004 3.08643 13.809 3.24026 13.9629C3.3941 14.1167 3.60275 14.2031 3.82031 14.2031H13.1953C13.4129 14.2031 13.6215 14.1167 13.7754 13.9629C13.9292 13.809 14.0156 13.6004 14.0156 13.3828V4.00781C14.0156 3.79025 13.9292 3.5816 13.7754 3.42776C13.6215 3.27393 13.4129 3.1875 13.1953 3.1875ZM3.82031 3.89062H5.34375V4.47656C5.34375 4.5698 5.38079 4.65922 5.44672 4.72515C5.51265 4.79109 5.60207 4.82812 5.69531 4.82812C5.78855 4.82812 5.87797 4.79109 5.9439 4.72515C6.00984 4.65922 6.04688 4.5698 6.04688 4.47656V3.89062H10.9688V4.47656C10.9688 4.5698 11.0058 4.65922 11.0717 4.72515C11.1377 4.79109 11.2271 4.82812 11.3203 4.82812C11.4136 4.82812 11.503 4.79109 11.5689 4.72515C11.6348 4.65922 11.6719 4.5698 11.6719 4.47656V3.89062H13.1953C13.2264 3.89062 13.2562 3.90297 13.2782 3.92495C13.3002 3.94693 13.3125 3.97673 13.3125 4.00781V6H3.70312V4.00781C3.70312 3.97673 3.71547 3.94693 3.73745 3.92495C3.75943 3.90297 3.78923 3.89062 3.82031 3.89062ZM13.1953 13.5H3.82031C3.78923 13.5 3.75943 13.4877 3.73745 13.4657C3.71547 13.4437 3.70312 13.4139 3.70312 13.3828V6.70312H13.3125V13.3828C13.3125 13.4139 13.3002 13.4437 13.2782 13.4657C13.2562 13.4877 13.2264 13.5 13.1953 13.5Z" fill="#36393C"/>
</svg>
