<svg width="24" height="24" viewBox="0 0 24 24" fill="none" xmlns="http://www.w3.org/2000/svg">
<rect x="6" y="6.59375" width="15" height="15" rx="1" fill="#DDE0E4"/>
<path d="M17.5938 4.25H15.5625V3.46875C15.5625 3.34443 15.5131 3.2252 15.4252 3.13729C15.3373 3.04939 15.2181 3 15.0938 3C14.9694 3 14.8502 3.04939 14.7623 3.13729C14.6744 3.2252 14.625 3.34443 14.625 3.46875V4.25H8.0625V3.46875C8.0625 3.34443 8.01311 3.2252 7.92521 3.13729C7.8373 3.04939 7.71807 3 7.59375 3C7.46943 3 7.3502 3.04939 7.26229 3.13729C7.17439 3.2252 7.125 3.34443 7.125 3.46875V4.25H5.09375C4.80367 4.25 4.52547 4.36523 4.32035 4.57035C4.11523 4.77547 4 5.05367 4 5.34375V17.8438C4 18.1338 4.11523 18.412 4.32035 18.6171C4.52547 18.8223 4.80367 18.9375 5.09375 18.9375H17.5938C17.8838 18.9375 18.162 18.8223 18.3671 18.6171C18.5723 18.412 18.6875 18.1338 18.6875 17.8438V5.34375C18.6875 5.05367 18.5723 4.77547 18.3671 4.57035C18.162 4.36523 17.8838 4.25 17.5938 4.25ZM5.09375 5.1875H7.125V5.96875C7.125 6.09307 7.17439 6.2123 7.26229 6.30021C7.3502 6.38811 7.46943 6.4375 7.59375 6.4375C7.71807 6.4375 7.8373 6.38811 7.92521 6.30021C8.01311 6.2123 8.0625 6.09307 8.0625 5.96875V5.1875H14.625V5.96875C14.625 6.09307 14.6744 6.2123 14.7623 6.30021C14.8502 6.38811 14.9694 6.4375 15.0938 6.4375C15.2181 6.4375 15.3373 6.38811 15.4252 6.30021C15.5131 6.2123 15.5625 6.09307 15.5625 5.96875V5.1875H17.5938C17.6352 5.1875 17.6749 5.20396 17.7042 5.23326C17.7335 5.26257 17.75 5.30231 17.75 5.34375V8H4.9375V5.34375C4.9375 5.30231 4.95396 5.26257 4.98326 5.23326C5.01257 5.20396 5.05231 5.1875 5.09375 5.1875ZM17.5938 18H5.09375C5.05231 18 5.01257 17.9835 4.98326 17.9542C4.95396 17.9249 4.9375 17.8852 4.9375 17.8438V8.9375H17.75V17.8438C17.75 17.8852 17.7335 17.9249 17.7042 17.9542C17.6749 17.9835 17.6352 18 17.5938 18Z" fill="#36393C"/>
</svg>
