<svg width="32" height="32" viewBox="0 0 32 32" fill="none" xmlns="http://www.w3.org/2000/svg">
<path d="M24.0016 29C22.9835 29 22.1177 28.6435 21.404 27.9305C20.6903 27.2175 20.3335 26.3518 20.3335 25.3333C20.3335 25.1669 20.3467 24.9945 20.3732 24.8162C20.3997 24.6378 20.4395 24.4735 20.4925 24.323L10.6309 18.5487C10.2788 18.8991 9.87791 19.173 9.42833 19.3705C8.97875 19.5679 8.50269 19.6666 8.00013 19.6666C6.98162 19.6666 6.11588 19.3103 5.40293 18.5976C4.68997 17.8849 4.3335 17.0196 4.3335 16.0015C4.3335 14.9834 4.68997 14.1175 5.40293 13.4038C6.11588 12.6902 6.98162 12.3333 8.00013 12.3333C8.50269 12.3333 8.97875 12.432 9.42833 12.6295C9.87791 12.8269 10.2788 13.1008 10.6309 13.4513L20.4925 7.6769C20.4395 7.52648 20.3997 7.3621 20.3732 7.18377C20.3467 7.00546 20.3335 6.83308 20.3335 6.66663C20.3335 5.64812 20.6898 4.78239 21.4025 4.06943C22.1152 3.35648 22.9805 3 23.9986 3C25.0167 3 25.8826 3.35633 26.5963 4.069C27.3099 4.78167 27.6668 5.64705 27.6668 6.66513C27.6668 7.68322 27.3103 8.5491 26.5973 9.26277C25.8844 9.97643 25.0186 10.3333 24.0001 10.3333C23.4976 10.3333 23.0215 10.2346 22.5719 10.0371C22.1224 9.83969 21.7215 9.56576 21.3694 9.21533L11.5078 14.9897C11.5608 15.1401 11.6005 15.3042 11.627 15.4819C11.6535 15.6596 11.6668 15.8314 11.6668 15.9973C11.6668 16.1632 11.6535 16.3359 11.627 16.5154C11.6005 16.6949 11.5608 16.8598 11.5078 17.0102L21.3694 22.7846C21.7215 22.4342 22.1224 22.1602 22.5719 21.9628C23.0215 21.7654 23.4976 21.6667 24.0001 21.6667C25.0186 21.6667 25.8844 22.023 26.5973 22.7357C27.3103 23.4483 27.6668 24.3137 27.6668 25.3318C27.6668 26.3499 27.3104 27.2158 26.5978 27.9294C25.8851 28.6431 25.0197 29 24.0016 29ZM24.0001 8.3333C24.4634 8.3333 24.857 8.17133 25.1809 7.8474C25.5049 7.52344 25.6668 7.12985 25.6668 6.6666C25.6668 6.20336 25.5049 5.80976 25.1809 5.4858C24.857 5.16189 24.4634 4.99994 24.0001 4.99994C23.5369 4.99994 23.1433 5.1619 22.8193 5.48583C22.4954 5.80979 22.3334 6.20339 22.3334 6.66663C22.3334 7.12988 22.4954 7.52348 22.8193 7.84743C23.1433 8.17137 23.5369 8.3333 24.0001 8.3333ZM8.00013 17.6666C8.46337 17.6666 8.85697 17.5047 9.18093 17.1807C9.50486 16.8568 9.66683 16.4632 9.66683 15.9999C9.66683 15.5367 9.50486 15.1431 9.18093 14.8191C8.85697 14.4952 8.46337 14.3333 8.00013 14.3333C7.53689 14.3333 7.14329 14.4952 6.81933 14.8192C6.4954 15.1431 6.33343 15.5367 6.33343 16C6.33343 16.4632 6.4954 16.8568 6.81933 17.1808C7.14329 17.5047 7.53689 17.6667 8.00013 17.6667V17.6666ZM24.0001 27C24.4634 27 24.857 26.838 25.1809 26.5141C25.5049 26.1901 25.6668 25.7965 25.6668 25.3333C25.6668 24.87 25.5049 24.4764 25.1809 24.1525C24.857 23.8286 24.4634 23.6666 24.0001 23.6666C23.5369 23.6666 23.1433 23.8286 22.8193 24.1525C22.4954 24.4765 22.3334 24.8701 22.3334 25.3333C22.3334 25.7965 22.4954 26.1901 22.8193 26.5141C23.1433 26.838 23.5369 27 24.0001 27Z" fill="black"/>
</svg>
